<svg xmlns="http://www.w3.org/2000/svg" xmlns:xlink="http://www.w3.org/1999/xlink" viewBox="0 0 368.3 342.9">
  <defs>
    <style>
      .cls-1, .cls-40, .cls-42 {
        fill: none;
      }

      .cls-2 {
        fill: url(#linear-gradient);
      }

      .cls-3 {
        fill: url(#linear-gradient-2);
      }

      .cls-4 {
        fill: url(#linear-gradient-3);
      }

      .cls-5 {
        fill: url(#linear-gradient-4);
      }

      .cls-6 {
        fill: #b3f5ff;
      }

      .cls-7 {
        opacity: 0.4;
      }

      .cls-8 {
        fill: #79e2f2;
      }

      .cls-9 {
        clip-path: url(#clip-path);
      }

      .cls-10 {
        fill: url(#linear-gradient-5);
      }

      .cls-11 {
        fill: url(#linear-gradient-6);
      }

      .cls-12 {
        fill: url(#linear-gradient-7);
      }

      .cls-13 {
        fill: url(#linear-gradient-8);
      }

      .cls-14 {
        fill: #ffe380;
      }

      .cls-15 {
        fill: url(#linear-gradient-9);
      }

      .cls-16 {
        fill: url(#linear-gradient-10);
      }

      .cls-17 {
        opacity: 0.6;
        isolation: isolate;
      }

      .cls-18 {
        fill: #0065ff;
      }

      .cls-19 {
        fill: #ffab00;
      }

      .cls-20 {
        fill: #2684ff;
      }

      .cls-21 {
        fill: url(#linear-gradient-11);
      }

      .cls-22 {
        fill: #344563;
      }

      .cls-23 {
        clip-path: url(#clip-path-2);
      }

      .cls-24 {
        clip-path: url(#clip-path-3);
      }

      .cls-25 {
        fill: #253858;
      }

      .cls-26 {
        fill: #b2d4ff;
      }

      .cls-27 {
        fill: #8c715d;
      }

      .cls-28 {
        fill: url(#linear-gradient-12);
      }

      .cls-29 {
        fill: #a27f68;
      }

      .cls-30 {
        fill: #0049b0;
      }

      .cls-31 {
        fill: #172b4d;
      }

      .cls-32 {
        fill: url(#linear-gradient-13);
      }

      .cls-33 {
        fill: url(#linear-gradient-14);
      }

      .cls-34 {
        fill: #cfd4db;
      }

      .cls-35 {
        fill: url(#linear-gradient-15);
      }

      .cls-36 {
        fill: #b5917c;
      }

      .cls-37 {
        fill: url(#linear-gradient-16);
      }

      .cls-38 {
        fill: url(#linear-gradient-17);
      }

      .cls-39 {
        fill: url(#linear-gradient-18);
      }

      .cls-40 {
        stroke: #ffab00;
        stroke-width: 2.25px;
      }

      .cls-40, .cls-42 {
        stroke-miterlimit: 10;
      }

      .cls-41 {
        fill: #cf9e76;
      }

      .cls-42 {
        stroke: #0065ff;
        stroke-width: 2.05px;
      }

      .cls-43 {
        fill: #0052cc;
      }

      .cls-44 {
        fill: #72594b;
      }

      .cls-45 {
        fill: #00c7e5;
      }

      .cls-46 {
        fill: #d4b696;
      }

      .cls-47 {
        fill: url(#linear-gradient-19);
      }

      .cls-48 {
        fill: url(#linear-gradient-20);
      }

      .cls-49 {
        fill: #00a3bf;
      }

      .cls-50 {
        fill: #ff8b00;
      }
    </style>
    <linearGradient id="linear-gradient" x1="315.75" y1="465.48" x2="296.82" y2="358.14" gradientTransform="translate(0 -214)" gradientUnits="userSpaceOnUse">
      <stop offset="0" stop-color="#79e2f2" stop-opacity="0"/>
      <stop offset="0.08" stop-color="#79e2f2" stop-opacity="0.14"/>
      <stop offset="0.23" stop-color="#79e2f2" stop-opacity="0.37"/>
      <stop offset="0.37" stop-color="#79e2f2" stop-opacity="0.56"/>
      <stop offset="0.49" stop-color="#79e2f2" stop-opacity="0.69"/>
      <stop offset="0.6" stop-color="#79e2f2" stop-opacity="0.77"/>
      <stop offset="0.67" stop-color="#79e2f2" stop-opacity="0.8"/>
    </linearGradient>
    <linearGradient id="linear-gradient-2" x1="52.64" y1="544.57" x2="69.87" y2="446.91" gradientTransform="translate(0 -214)" gradientUnits="userSpaceOnUse">
      <stop offset="0" stop-color="#00c7e5" stop-opacity="0"/>
      <stop offset="0.12" stop-color="#00c7e5" stop-opacity="0.02"/>
      <stop offset="0.25" stop-color="#00c7e5" stop-opacity="0.07"/>
      <stop offset="0.39" stop-color="#00c7e5" stop-opacity="0.16"/>
      <stop offset="0.52" stop-color="#00c7e5" stop-opacity="0.29"/>
      <stop offset="0.65" stop-color="#00c7e5" stop-opacity="0.45"/>
      <stop offset="0.79" stop-color="#00c7e5" stop-opacity="0.65"/>
      <stop offset="0.92" stop-color="#00c7e5" stop-opacity="0.89"/>
      <stop offset="0.98" stop-color="#00c7e5"/>
    </linearGradient>
    <linearGradient id="linear-gradient-3" x1="175.16" y1="455.96" x2="192.38" y2="358.41" gradientTransform="translate(0 -214)" gradientUnits="userSpaceOnUse">
      <stop offset="0" stop-color="#00c7e5" stop-opacity="0"/>
      <stop offset="0.13" stop-color="#00c7e5" stop-opacity="0.22"/>
      <stop offset="0.29" stop-color="#00c7e5" stop-opacity="0.46"/>
      <stop offset="0.45" stop-color="#00c7e5" stop-opacity="0.65"/>
      <stop offset="0.6" stop-color="#00c7e5" stop-opacity="0.8"/>
      <stop offset="0.74" stop-color="#00c7e5" stop-opacity="0.91"/>
      <stop offset="0.87" stop-color="#00c7e5" stop-opacity="0.98"/>
      <stop offset="0.98" stop-color="#00c7e5"/>
    </linearGradient>
    <linearGradient id="linear-gradient-4" x1="192.38" y1="544.57" x2="175.16" y2="446.91" gradientTransform="translate(0 -214)" gradientUnits="userSpaceOnUse">
      <stop offset="0" stop-color="#00c7e5" stop-opacity="0"/>
      <stop offset="0.12" stop-color="#02c7e5" stop-opacity="0.02"/>
      <stop offset="0.25" stop-color="#08c9e6" stop-opacity="0.07"/>
      <stop offset="0.38" stop-color="#13cbe7" stop-opacity="0.15"/>
      <stop offset="0.51" stop-color="#21cee9" stop-opacity="0.27"/>
      <stop offset="0.65" stop-color="#34d3eb" stop-opacity="0.43"/>
      <stop offset="0.78" stop-color="#4bd8ed" stop-opacity="0.62"/>
      <stop offset="0.91" stop-color="#66def0" stop-opacity="0.84"/>
      <stop offset="1" stop-color="#79e2f2"/>
    </linearGradient>
    <clipPath id="clip-path">
      <polygon class="cls-1" points="367.5 132.1 245 108.8 122.5 132.1 245 155.3 367.5 132.1"/>
    </clipPath>
    <linearGradient id="linear-gradient-5" x1="219.24" y1="336.26" x2="239.2" y2="223.1" gradientTransform="translate(0 -214)" gradientUnits="userSpaceOnUse">
      <stop offset="0" stop-color="#0052cc" stop-opacity="0"/>
      <stop offset="0.03" stop-color="#0052cc" stop-opacity="0.1"/>
      <stop offset="0.11" stop-color="#0052cc" stop-opacity="0.31"/>
      <stop offset="0.19" stop-color="#0052cc" stop-opacity="0.5"/>
      <stop offset="0.28" stop-color="#0052cc" stop-opacity="0.65"/>
      <stop offset="0.38" stop-color="#0052cc" stop-opacity="0.78"/>
      <stop offset="0.48" stop-color="#0052cc" stop-opacity="0.88"/>
      <stop offset="0.6" stop-color="#0052cc" stop-opacity="0.95"/>
      <stop offset="0.75" stop-color="#0052cc" stop-opacity="0.99"/>
      <stop offset="1" stop-color="#0052cc"/>
    </linearGradient>
    <linearGradient id="linear-gradient-6" x1="265.82" y1="336.26" x2="245.87" y2="223.1" gradientTransform="translate(0 -214)" gradientUnits="userSpaceOnUse">
      <stop offset="0.06" stop-color="#0065ff" stop-opacity="0"/>
      <stop offset="0.09" stop-color="#0065ff" stop-opacity="0.09"/>
      <stop offset="0.15" stop-color="#0065ff" stop-opacity="0.28"/>
      <stop offset="0.22" stop-color="#0065ff" stop-opacity="0.45"/>
      <stop offset="0.29" stop-color="#0065ff" stop-opacity="0.6"/>
      <stop offset="0.37" stop-color="#0065ff" stop-opacity="0.72"/>
      <stop offset="0.45" stop-color="#0065ff" stop-opacity="0.82"/>
      <stop offset="0.55" stop-color="#0065ff" stop-opacity="0.9"/>
      <stop offset="0.65" stop-color="#0065ff" stop-opacity="0.96"/>
      <stop offset="0.78" stop-color="#0065ff" stop-opacity="0.99"/>
      <stop offset="1" stop-color="#0065ff"/>
    </linearGradient>
    <linearGradient id="linear-gradient-7" x1="285.29" y1="343.69" x2="295.35" y2="286.59" gradientTransform="translate(0 -214)" gradientUnits="userSpaceOnUse">
      <stop offset="0" stop-color="#00c7e5" stop-opacity="0"/>
      <stop offset="0.16" stop-color="#00c7e5" stop-opacity="0.26"/>
      <stop offset="0.31" stop-color="#00c7e5" stop-opacity="0.48"/>
      <stop offset="0.47" stop-color="#00c7e5" stop-opacity="0.67"/>
      <stop offset="0.62" stop-color="#00c7e5" stop-opacity="0.81"/>
      <stop offset="0.76" stop-color="#00c7e5" stop-opacity="0.92"/>
      <stop offset="0.89" stop-color="#00c7e5" stop-opacity="0.98"/>
      <stop offset="1" stop-color="#00c7e5"/>
    </linearGradient>
    <linearGradient id="linear-gradient-8" x1="321.97" y1="343.67" x2="311.9" y2="286.54" gradientTransform="translate(0 -214)" gradientUnits="userSpaceOnUse">
      <stop offset="0" stop-color="#79e2f2" stop-opacity="0"/>
      <stop offset="0.01" stop-color="#79e2f2" stop-opacity="0.04"/>
      <stop offset="0.07" stop-color="#79e2f2" stop-opacity="0.24"/>
      <stop offset="0.14" stop-color="#79e2f2" stop-opacity="0.42"/>
      <stop offset="0.2" stop-color="#79e2f2" stop-opacity="0.58"/>
      <stop offset="0.28" stop-color="#79e2f2" stop-opacity="0.71"/>
      <stop offset="0.35" stop-color="#79e2f2" stop-opacity="0.82"/>
      <stop offset="0.44" stop-color="#79e2f2" stop-opacity="0.9"/>
      <stop offset="0.54" stop-color="#79e2f2" stop-opacity="0.96"/>
      <stop offset="0.66" stop-color="#79e2f2" stop-opacity="0.99"/>
      <stop offset="0.87" stop-color="#79e2f2"/>
    </linearGradient>
    <linearGradient id="linear-gradient-9" x1="161.79" y1="346.36" x2="171.95" y2="288.81" gradientTransform="translate(0 -214)" gradientUnits="userSpaceOnUse">
      <stop offset="0.06" stop-color="#ff991f" stop-opacity="0"/>
      <stop offset="0.08" stop-color="#ff991f" stop-opacity="0.09"/>
      <stop offset="0.14" stop-color="#ff991f" stop-opacity="0.3"/>
      <stop offset="0.2" stop-color="#ff991f" stop-opacity="0.49"/>
      <stop offset="0.26" stop-color="#ff991f" stop-opacity="0.65"/>
      <stop offset="0.32" stop-color="#ff991f" stop-opacity="0.77"/>
      <stop offset="0.38" stop-color="#ff991f" stop-opacity="0.87"/>
      <stop offset="0.45" stop-color="#ff991f" stop-opacity="0.94"/>
      <stop offset="0.52" stop-color="#ff991f" stop-opacity="0.99"/>
      <stop offset="0.59" stop-color="#ff991f"/>
    </linearGradient>
    <linearGradient id="linear-gradient-10" x1="198.57" y1="346.38" x2="188.42" y2="288.79" gradientTransform="translate(0 -214)" gradientUnits="userSpaceOnUse">
      <stop offset="0.06" stop-color="#ffc400" stop-opacity="0"/>
      <stop offset="0.09" stop-color="#ffc400" stop-opacity="0.09"/>
      <stop offset="0.15" stop-color="#ffc400" stop-opacity="0.28"/>
      <stop offset="0.22" stop-color="#ffc400" stop-opacity="0.45"/>
      <stop offset="0.29" stop-color="#ffc400" stop-opacity="0.6"/>
      <stop offset="0.37" stop-color="#ffc400" stop-opacity="0.72"/>
      <stop offset="0.45" stop-color="#ffc400" stop-opacity="0.82"/>
      <stop offset="0.55" stop-color="#ffc400" stop-opacity="0.9"/>
      <stop offset="0.65" stop-color="#ffc400" stop-opacity="0.96"/>
      <stop offset="0.78" stop-color="#ffc400" stop-opacity="0.99"/>
      <stop offset="1" stop-color="#ffc400"/>
    </linearGradient>
    <linearGradient id="linear-gradient-11" y1="424.86" x2="245.03" y2="424.86" gradientTransform="translate(0 -214)" gradientUnits="userSpaceOnUse">
      <stop offset="0" stop-color="#ebecf0" stop-opacity="0"/>
      <stop offset="0.08" stop-color="#daebf0" stop-opacity="0.15"/>
      <stop offset="0.21" stop-color="#c1e8f1" stop-opacity="0.37"/>
      <stop offset="0.34" stop-color="#abe6f1" stop-opacity="0.56"/>
      <stop offset="0.47" stop-color="#99e5f1" stop-opacity="0.72"/>
      <stop offset="0.6" stop-color="#8be4f2" stop-opacity="0.84"/>
      <stop offset="0.73" stop-color="#81e3f2" stop-opacity="0.93"/>
      <stop offset="0.86" stop-color="#7be2f2" stop-opacity="0.98"/>
      <stop offset="0.98" stop-color="#79e2f2"/>
    </linearGradient>
    <clipPath id="clip-path-2">
      <path class="cls-1" d="M169.9,220.6H159.3v-6.7l3.5.2c.3,2.2,1.1,3.2,1.8,3.6s3.2.2,4.4,1.4A2.4,2.4,0,0,1,169.9,220.6Z"/>
    </clipPath>
    <clipPath id="clip-path-3">
      <path class="cls-1" d="M154.9,222.6l-10.4-1.3.7-6.6,3.4.5c.1,2.3.8,3.2,1.5,3.7s3.1.5,4.1,2A2.6,2.6,0,0,1,154.9,222.6Z"/>
    </clipPath>
    <linearGradient id="linear-gradient-12" x1="3574.54" y1="359.17" x2="3581.8" y2="359.17" gradientTransform="matrix(-1, 0, 0, 1, 3733.16, -214)" gradientUnits="userSpaceOnUse">
      <stop offset="0" stop-color="#72594b"/>
      <stop offset="0.56" stop-color="#8c715d"/>
    </linearGradient>
    <linearGradient id="linear-gradient-13" x1="-10636.28" y1="383.84" x2="-10636.28" y2="359.8" gradientTransform="translate(10790.8 -214)" gradientUnits="userSpaceOnUse">
      <stop offset="0" stop-color="#0052cc"/>
      <stop offset="0.04" stop-color="#0055d3"/>
      <stop offset="0.17" stop-color="#005ce7"/>
      <stop offset="0.31" stop-color="#0061f4"/>
      <stop offset="0.5" stop-color="#0064fd"/>
      <stop offset="0.82" stop-color="#0065ff"/>
    </linearGradient>
    <linearGradient id="linear-gradient-14" x1="-226.91" y1="-601.37" x2="-176.01" y2="-652.27" gradientTransform="matrix(0.76, -0.3, 0.41, 0.91, 605.76, 657.87)" gradientUnits="userSpaceOnUse">
      <stop offset="0" stop-color="#f0f2f5"/>
      <stop offset="0.19" stop-color="#fbfcfc"/>
      <stop offset="0.4" stop-color="#fff"/>
    </linearGradient>
    <linearGradient id="linear-gradient-15" x1="-6610.22" y1="-5495.96" x2="-6610.11" y2="-5504.6" gradientTransform="translate(7946.8 -3544.6) rotate(-65.2)" gradientUnits="userSpaceOnUse">
      <stop offset="0" stop-color="#0052cc"/>
      <stop offset="0.49" stop-color="#005be4"/>
      <stop offset="0.97" stop-color="#0065ff"/>
    </linearGradient>
    <linearGradient id="linear-gradient-16" x1="84.87" y1="396.56" x2="84.87" y2="393.48" gradientTransform="translate(0 -214)" gradientUnits="userSpaceOnUse">
      <stop offset="0" stop-color="#ffc400"/>
      <stop offset="1" stop-color="#ff991f"/>
    </linearGradient>
    <linearGradient id="linear-gradient-17" x1="-10.88" y1="688.21" x2="-10.88" y2="643.32" gradientTransform="translate(54.5 -466.1) rotate(-3.4)" gradientUnits="userSpaceOnUse">
      <stop offset="0.41" stop-color="#0057d8"/>
      <stop offset="0.55" stop-color="#0059dd"/>
      <stop offset="0.72" stop-color="#005eeb"/>
      <stop offset="0.88" stop-color="#0065ff"/>
    </linearGradient>
    <linearGradient id="linear-gradient-18" x1="-8170.68" y1="1699.4" x2="-8170.68" y2="1652.78" gradientTransform="matrix(-0.95, 0.3, 0.3, 0.95, -8181.33, 1038.55)" gradientUnits="userSpaceOnUse">
      <stop offset="0" stop-color="#0057d8"/>
      <stop offset="1" stop-color="#0065ff"/>
    </linearGradient>
    <linearGradient id="linear-gradient-19" x1="3604.3" y1="322.46" x2="3616.25" y2="326.81" gradientTransform="matrix(-1, 0, 0, 1, 3901.46, -214)" gradientUnits="userSpaceOnUse">
      <stop offset="0.13" stop-color="#0065ff"/>
      <stop offset="1" stop-color="#0052cc"/>
    </linearGradient>
    <linearGradient id="linear-gradient-20" x1="114.4" y1="421.43" x2="139.47" y2="421.43" gradientTransform="translate(0 -214)" gradientUnits="userSpaceOnUse">
      <stop offset="0" stop-color="#0057d8"/>
      <stop offset="0.41" stop-color="#0058db"/>
      <stop offset="0.66" stop-color="#005be3"/>
      <stop offset="0.87" stop-color="#0060f1"/>
      <stop offset="1" stop-color="#0065ff"/>
    </linearGradient>
  </defs>
  <title>agile</title>
  <g id="Layer_2" data-name="Layer 2">
    <g id="Layer_1-2" data-name="Layer 1">
      <g id="Main">
        <polygon class="cls-2" points="367.5 241.3 245 264 245 154.3 367.5 131.7 367.5 241.3"/>
        <polygon class="cls-3" points="122.5 342.9 0 319.7 0 220.6 122.5 243.8 122.5 342.9"/>
        <polygon class="cls-4" points="245 254.3 122.5 231.1 122.5 132.1 245 155.3 245 254.3"/>
        <polygon class="cls-5" points="245 319.7 122.5 342.9 122.5 243.8 245 220.6 245 319.7"/>
        <polygon id="_Clipping_Path_6" data-name=" Clipping Path 6" class="cls-6" points="245 220.6 122.5 197.4 0 220.6 122.5 243.8 245 220.6"/>
        <g class="cls-7">
          <rect class="cls-8" x="132.2" y="25.4" width="111.6" height="2.08" transform="translate(-1.6 35.3) rotate(-10.7)"/>
          <rect class="cls-8" x="132.2" y="38.8" width="111.6" height="2.08" transform="translate(-4.1 35.6) rotate(-10.7)"/>
          <rect class="cls-8" x="132.1" y="52.2" width="111.6" height="2.08" transform="translate(-6.6 36) rotate(-10.8)"/>
          <rect class="cls-8" x="132.1" y="65.6" width="111.6" height="2.08" transform="translate(-9.1 36.2) rotate(-10.8)"/>
          <rect class="cls-8" x="132.2" y="79" width="111.6" height="2.08" transform="translate(-11.6 36.3) rotate(-10.7)"/>
          <rect class="cls-8" x="132.2" y="92.4" width="111.6" height="2.08" transform="translate(-14.1 36.5) rotate(-10.7)"/>
          <rect class="cls-8" x="132.1" y="35.8" width="2.1" height="81.43"/>
          <rect class="cls-8" x="147.9" y="32.9" width="2.1" height="81.43"/>
          <rect class="cls-8" x="163.7" y="30.1" width="2.1" height="81.33"/>
          <rect class="cls-8" x="179.6" y="27.1" width="2.1" height="81.33"/>
          <rect class="cls-8" x="195.4" y="24.2" width="2.1" height="81.43"/>
          <rect class="cls-8" x="211.2" y="21.3" width="2.1" height="81.43"/>
          <rect class="cls-8" x="227" y="18.4" width="2.1" height="81.43"/>
          <rect class="cls-8" x="242.8" y="15.5" width="2.1" height="81.43"/>
          <rect class="cls-8" x="295.8" y="50.8" width="2.1" height="111.45" transform="translate(137 378.5) rotate(-79.3)"/>
          <rect class="cls-8" x="295.8" y="37.4" width="2.1" height="111.45" transform="translate(150.2 367.5) rotate(-79.3)"/>
          <rect class="cls-8" x="295.8" y="24" width="2.1" height="111.47" transform="translate(163.1 356.5) rotate(-79.2)"/>
          <rect class="cls-8" x="295.8" y="10.6" width="2.1" height="111.47" transform="translate(176.3 345.6) rotate(-79.2)"/>
          <rect class="cls-8" x="295.8" y="-2.7" width="2.1" height="111.45" transform="translate(189.7 334.9) rotate(-79.3)"/>
          <rect class="cls-8" x="295.8" y="-16.2" width="2.1" height="111.45" transform="translate(202.9 323.9) rotate(-79.3)"/>
          <rect class="cls-8" x="241.1" y="15.8" width="2.1" height="81.43"/>
          <rect class="cls-8" x="256.9" y="18.7" width="2.1" height="81.43"/>
          <rect class="cls-8" x="272.7" y="21.6" width="2.1" height="81.33"/>
          <rect class="cls-8" x="288.5" y="24.5" width="2.1" height="81.33"/>
          <rect class="cls-8" x="304.3" y="27.5" width="2.1" height="81.33"/>
          <rect class="cls-8" x="320.2" y="30.3" width="2.1" height="81.43"/>
          <rect class="cls-8" x="336" y="33.2" width="2.1" height="81.43"/>
          <rect class="cls-8" x="351.8" y="36.1" width="2.1" height="81.43"/>
          <rect class="cls-8" x="115.8" y="107.3" width="128.1" height="2.08" transform="translate(-17.1 35.4) rotate(-10.8)"/>
          <rect class="cls-8" x="296.5" y="-29.3" width="2.1" height="111.45" transform="translate(216.2 313.9) rotate(-79.3)"/>
          <rect class="cls-8" x="304.4" y="44.5" width="2.1" height="127.56" transform="translate(142 388.1) rotate(-79.2)"/>
          <rect class="cls-8" x="132.1" y="21.6" width="2.1" height="109.41"/>
        </g>
        <polygon id="_Clipping_Path_7" data-name=" Clipping Path 7" class="cls-6" points="367.5 132.1 245 108.8 122.5 132.1 245 155.3 367.5 132.1"/>
        <g class="cls-9">
          <ellipse class="cls-6" cx="235.4" cy="149.7" rx="29.2" ry="3.1"/>
        </g>
        <polygon class="cls-10" points="215.9 5 215.9 121.4 242.5 126.4 242.5 10.1 215.9 5"/>
        <polygon class="cls-11" points="269.2 5 242.5 10.1 242.5 126.4 269.2 121.4 269.2 5"/>
        <polygon class="cls-6" points="330.3 69.4 303.6 64.3 277.1 69.4 303.6 74.4 330.3 69.4"/>
        <polygon class="cls-12" points="277.1 69.4 277.1 127.9 303.6 132.9 303.6 74.4 277.1 69.4"/>
        <polygon class="cls-13" points="330.3 69.4 303.6 74.4 303.6 132.9 330.3 127.9 330.3 69.4"/>
        <polygon class="cls-14" points="206.8 71.6 180.2 66.5 153.5 71.6 180.2 76.5 206.8 71.6"/>
        <polygon class="cls-15" points="153.5 71.6 153.5 130.5 180.2 135.6 180.2 76.5 153.5 71.6"/>
        <polygon class="cls-16" points="206.8 71.6 180.2 76.5 180.2 135.6 206.8 130.5 206.8 71.6"/>
        <g class="cls-17">
          <polygon class="cls-8" points="0.8 207.4 0.7 205.3 10.4 203.4 10.4 205.5 0.8 207.4"/>
        </g>
        <g class="cls-17">
          <polygon class="cls-8" points="0.7 199.6 0.7 197.5 10.4 195.7 10.4 197.8 0.7 199.6"/>
        </g>
        <g class="cls-17">
          <polygon class="cls-8" points="0.7 191.8 0.7 189.7 10.4 187.9 10.4 190 0.7 191.8"/>
        </g>
        <g class="cls-17">
          <polygon class="cls-8" points="0.7 184.1 0.7 182 10.4 180.3 10.4 182.3 0.7 184.1"/>
        </g>
        <g class="cls-17">
          <polygon class="cls-8" points="0.7 176.3 0.7 174.2 10.4 172.5 10.4 174.5 0.7 176.3"/>
        </g>
        <g class="cls-17">
          <polygon class="cls-8" points="0.8 168.6 0.7 166.5 10.4 164.7 10.4 166.7 0.8 168.6"/>
        </g>
        <g class="cls-17">
          <polygon class="cls-8" points="0.7 160.8 0.7 158.7 10.4 157 10.8 159 0.7 160.8"/>
        </g>
        <g class="cls-17">
          <polygon class="cls-8" points="0.8 153.1 0.7 151 10.4 149.2 10.4 151.2 0.8 153.1"/>
        </g>
        <g class="cls-17">
          <polygon class="cls-8" points="0.7 145.3 0.7 143.2 10.4 141.5 10.4 143.5 0.7 145.3"/>
        </g>
        <g class="cls-17">
          <polygon class="cls-8" points="0.8 137.6 0.7 135.5 10.4 133.7 10.4 135.7 0.8 137.6"/>
        </g>
        <g class="cls-17">
          <polygon class="cls-8" points="0.7 129.8 0.7 127.7 10.4 126 10.4 128 0.7 129.8"/>
        </g>
        <polygon class="cls-18" points="15.8 204.4 15.8 202.4 82.5 189.8 82.5 191.9 15.8 204.4"/>
        <polygon class="cls-18" points="15.8 196.8 15.8 194.7 42.7 189.6 42.7 191.7 15.8 196.8"/>
        <polygon class="cls-8" points="15.8 189 15.8 186.9 79 174.9 79 177 15.8 189"/>
        <polygon class="cls-19" points="45.1 175.6 45 173.6 100.5 163.1 100.5 165.1 45.1 175.6"/>
        <polygon class="cls-19" points="15.4 181.3 15.4 179.2 39.6 174.6 39.7 176.7 15.4 181.3"/>
        <polygon class="cls-18" points="15.8 173.5 15.8 171.4 79 159.5 79 161.5 15.8 173.5"/>
        <polygon class="cls-18" points="15.8 165.8 15.8 163.7 110.5 145.7 110.5 147.8 15.8 165.8"/>
        <polygon class="cls-8" points="76.1 146.5 76 144.5 110.5 137.9 110.5 140 76.1 146.5"/>
        <polygon class="cls-18" points="15.8 158 15.8 155.9 47.3 149.9 47.7 151.9 15.8 158"/>
        <polygon class="cls-20" points="15.8 150.2 15.8 148.1 110.7 130.2 110.7 132.3 15.8 150.2"/>
        <polygon class="cls-20" points="15.8 142.5 15.8 140.4 52.6 133.5 52.7 135.5 15.8 142.5"/>
        <polygon class="cls-8" points="45.3 129.2 45.3 127.1 88 119 88 121 45.3 129.2"/>
        <polygon class="cls-20" points="15.8 134.7 15.8 132.6 40.9 127.9 40.9 130 15.8 134.7"/>
        <polygon class="cls-19" points="15.8 127 15.8 124.9 49.3 118.6 49.3 120.6 15.8 127"/>
        <g class="cls-17">
          <polygon class="cls-8" points="0.7 122 0.7 119.9 10.4 118.2 10.4 120.2 0.7 122"/>
        </g>
        <g class="cls-17">
          <polygon class="cls-8" points="0.8 114.3 0.7 112.2 10.4 110.4 10.4 112.4 0.8 114.3"/>
        </g>
        <g class="cls-17">
          <polygon class="cls-8" points="0.7 106.5 0.7 104.4 10.4 102.7 10.4 104.7 0.7 106.5"/>
        </g>
        <g class="cls-17">
          <polygon class="cls-8" points="0.8 98.8 0.7 96.7 10.4 94.9 10.4 96.9 0.8 98.8"/>
        </g>
        <polygon class="cls-19" points="15.8 119.2 15.8 117.1 87.5 103.5 87.5 105.5 15.8 119.2"/>
        <path class="cls-21" d="M245,220.6,122.5,197.4,0,220.6a367,367,0,0,1,60.9-6.5,321.7,321.7,0,0,1,41.7,1.8c-.5.2-.8.5-.8.8s7.8,2.7,17.5,2.7a67,67,0,0,0,10-.5l10.8,1.3c-1.7.4-2.6.9-2.6,1.4s7.8,2.7,17.4,2.7c7.9,0,14.5-.8,16.6-1.9A563.4,563.4,0,0,0,245,220.6Z"/>
        <polygon class="cls-18" points="15.8 111.4 15.8 109.3 82.5 96.7 82.5 98.8 15.8 111.4"/>
        <polygon class="cls-18" points="15.8 103.7 15.8 101.6 42.7 96.5 42.7 98.6 15.8 103.7"/>
        <polygon class="cls-8" points="15.8 95.9 15.8 93.8 62 85.1 62 87.1 15.8 95.9"/>
        <path id="_Clipping_Path_8" data-name=" Clipping Path 8" class="cls-22" d="M169.9,220.6H159.3v-6.7l3.5.2c.3,2.2,1.1,3.2,1.8,3.6s3.2.2,4.4,1.4A2.4,2.4,0,0,1,169.9,220.6Z"/>
        <g class="cls-23">
          <rect class="cls-22" x="164.1" y="214.9" width="1" height="10.95" transform="translate(-58 381.8) rotate(-89.2)"/>
        </g>
        <circle class="cls-22" cx="161" cy="216.5" r="0.8"/>
        <path id="_Clipping_Path_9" data-name=" Clipping Path 9" class="cls-22" d="M154.9,222.6l-10.4-1.3.7-6.6,3.4.5c.1,2.3.8,3.2,1.5,3.7s3.1.5,4.1,2A2.6,2.6,0,0,1,154.9,222.6Z"/>
        <g class="cls-24">
          <rect class="cls-22" x="149" y="216.2" width="1" height="10.95" transform="translate(-88.5 343.5) rotate(-83.1)"/>
        </g>
        <circle class="cls-25" cx="147" cy="218.4" r="0.8"/>
        <polygon class="cls-26" points="159.4 214 162.9 214 163 209.4 159.1 209.4 159.4 214"/>
        <path class="cls-27" d="M163.7,186.1l-.7,23.3h-3.9a105.6,105.6,0,0,1-1.1-18.6c0-1.4.1-2.9.2-4.2Z"/>
        <path class="cls-27" d="M154.5,186.7l-5.3,25.2-3.7-1a114.3,114.3,0,0,1,2.1-20.1c.3-1.5.6-3,1-4.5Z"/>
        <path class="cls-28" d="M158.6,145.9A4.3,4.3,0,0,1,156,149a4.5,4.5,0,0,1-4.7-.7,13.3,13.3,0,0,0,0-7.4l6.3,1.6a6,6,0,0,0,0,1.9c0,.8.1,1.1.3,1.3Z"/>
        <path class="cls-29" d="M180.2,154.9H184c.2-.1.4.1.5.3s0,.2-.1.2.4.2.4.4a.5.5,0,0,1-.1.6h-.2a.8.8,0,0,1,.2.4.8.8,0,0,1-.8.6.3.3,0,0,1,0,.4c-.1.1-.2.3-.4.3l-2.1.6a2.9,2.9,0,0,1-1.6-.1l-.6-.4c-.5.5-.8.4-.8.4a3.5,3.5,0,0,1-.2-2.2Z"/>
        <path class="cls-29" d="M167.1,159.7a1.8,1.8,0,0,1,1.2.3l3.3-1.8c2.3-.9,3.5-1.1,6-2.2l2.1-1.1.3,2.5c-2.3,1.9-4.5,3.8-6.9,5.6a11.9,11.9,0,0,1-2.5,1.3c-1.1.4-4,1.5-5,.2S165.6,160.2,167.1,159.7Z"/>
        <path class="cls-30" d="M167.9,165.1l-1.6.2a5.8,5.8,0,0,1-3.1-2l-4-4.1v-8.7a20.9,20.9,0,0,1,2,2.2,24.4,24.4,0,0,0,3.9,4.6c2,1.9,2.7,1.8,3.2,3S168.5,163.7,167.9,165.1Z"/>
        <path class="cls-31" d="M146.7,189.8v-.5c.5-5.1.9-5.7,1.4-10.9.3-3.5.6-6.7,1-10H162c.7,5,1.2,10.3,1.5,15.8a45.8,45.8,0,0,1,.3,5.3,5.9,5.9,0,0,1-5.9.2c-.4-3.1-.9-4.3-1.3-8.3a72.5,72.5,0,0,1-1.7,7.8,3.6,3.6,0,0,0-.2,1,7.3,7.3,0,0,1-2.9.7A8.5,8.5,0,0,1,146.7,189.8Z"/>
        <path id="_Clipping_Path_10" data-name=" Clipping Path 10" class="cls-32" d="M160,145.8h-1.8a3.7,3.7,0,0,1-4.9.8l-1.4-.8-4.3,2.7a2.2,2.2,0,0,0-1.1,2.3c0,.6.2,1.5.3,2.3a47.8,47.8,0,0,0,1.1,6.6c.4,1.7.7,3.4,1,5l.3,3.7a14.6,14.6,0,0,0,12.9-.1,10.1,10.1,0,0,0-.2-2.5,9.7,9.7,0,0,1-.1-1.7,5,5,0,0,1,.2-2.1c.9-3.3-.9-4.5-.2-8.3.3-1.1.6-2.2.8-3.3a10.5,10.5,0,0,0-.1-2.5,2.2,2.2,0,0,0-2.3-2.1H160Z"/>
        <path class="cls-29" d="M178.5,155.3l.5-.4a3.6,3.6,0,0,1,1.7-.7l2.4-.5h0a.9.9,0,0,1-.6,1.2l-.9.3-2.3,2.3-1.4-.8h0A1.5,1.5,0,0,1,178.5,155.3Z"/>
        <path class="cls-33" d="M230.6,143.5l-54.2,21.3a1.4,1.4,0,0,1-1.8-1l-10.5-23.5a1.4,1.4,0,0,1,.4-1.9h.1L218.8,117a2.1,2.1,0,0,1,2.5,1.4l10,22.5a1.9,1.9,0,0,1-.5,2.5h-.2Z"/>
        <path class="cls-19" d="M221.1,128.2l-3.5,1.5a1.8,1.8,0,0,1-1.9-1.1l-2-4.3a1.6,1.6,0,0,1,.5-2h0l3.7-1.3a1.5,1.5,0,0,1,1.8,1l1.9,4.3a1.3,1.3,0,0,1-.3,1.8Z"/>
        <path class="cls-19" d="M178.2,164.2l-1.8.6a1.4,1.4,0,0,1-1.8-1l-10.5-23.5a1.2,1.2,0,0,1,.3-1.7l.2-.2h0l1.8-.6Z"/>
        <rect class="cls-34" x="171.4" y="134.1" width="29.3" height="1.04" transform="translate(-36.3 77.3) rotate(-21.4)"/>
        <rect class="cls-34" x="173" y="137.8" width="29.3" height="1.04" transform="matrix(0.93, -0.37, 0.37, 0.93, -37.54, 78.1)"/>
        <rect class="cls-34" x="174.8" y="142.3" width="24.5" height="1.04" transform="translate(-39.2 78.2) rotate(-21.4)"/>
        <rect class="cls-34" x="180.1" y="154.9" width="16.9" height="1.04" transform="translate(-44 80.5) rotate(-21.7)"/>
        <path id="_Path_2" data-name=" Path 2" class="cls-27" d="M155.8,144c2.7.5,2.9.5,3.2.2a3.2,3.2,0,0,0,.7-1.9,6,6,0,0,0,.5-1.4c.1-.3.6.2.8,0s0-.4-.2-.8a5.4,5.4,0,0,1-.4-1.5v-.2a5,5,0,0,0-7.2-4.6,5.1,5.1,0,0,0-2.5,3.8,10.6,10.6,0,0,0,.5,3.1h0v.2c.1.3.7.7.7.7l1,.5c.5.3.3.8.7,1.3S154.4,143.9,155.8,144Z"/>
        <path class="cls-31" d="M152.9,141.4c.7-.3.4-2,.9-2.1s.5.2.9.5h.8a5.7,5.7,0,0,1,.3-1.8c.3-1,.5-1.9,1.1-2s.7.2,2.4,1l1.1.4c0-.3-.1-.5-.1-.7a4.5,4.5,0,0,0-1.6-2.2,5.3,5.3,0,0,0-5.5-.8,4.7,4.7,0,0,0-2.4,3.8,10.6,10.6,0,0,0,.5,3.1h0v.2C151.4,141,152.3,141.8,152.9,141.4Z"/>
        <path class="cls-29" d="M168.1,144.7l2.3-3.1c.1-.2.3-.2.5-.1h.7c.2.1.4.4.3.6h.4a.8.8,0,0,1-.1,1l.3.3c.2.2.2.4,0,.5a11.9,11.9,0,0,1-.8,2,5.2,5.2,0,0,1-1.7,1.6.9.9,0,0,1-.4.8c-.3.1-1.1-.3-1.7-1.2Z"/>
        <path class="cls-29" d="M167.3,146.3v-.7a5.8,5.8,0,0,1,.6-1.7l1.1-2.3h0a1,1,0,0,1,.5,1.3l-.4.9.4,3.2-1.4.6h0A1.6,1.6,0,0,1,167.3,146.3Z"/>
        <path class="cls-29" d="M157.7,155.8a2.7,2.7,0,0,1,1.2-.3l2.7-3.1c2-1.9,3.1-2.6,5.2-4.8l1.8-2,1.3,2.4a89.2,89.2,0,0,1-4.7,8.6,15.9,15.9,0,0,1-2,2.4c-1,.9-3.5,3-5,2.2S156.2,156.8,157.7,155.8Z"/>
        <path class="cls-35" d="M147.6,149.2a3.1,3.1,0,0,0-.9,2.2,4.3,4.3,0,0,0,1.1,2.1c2.3,2.3,3.4,2.6,5.3,4.6a14,14,0,0,0,3.3,2.6l1.2.3a4.4,4.4,0,0,1,.5-1.5l1-1.3c.5-.5.9-1.4.4-3.5h-.8c-3.4-.8-3.9-3.9-7.4-5.2C149.9,148.7,148.3,148.6,147.6,149.2Z"/>
        <polygon class="cls-26" points="145.2 214.7 148.6 215.2 149.7 209.6 145.5 209.4 145.2 214.7"/>
        <ellipse class="cls-6" cx="84.9" cy="226.9" rx="19.1" ry="3"/>
        <path class="cls-31" d="M78.7,152.8c-.3.9-.7,1.9-1.1,2.8a25.4,25.4,0,0,1-8.5,9.6,11.9,11.9,0,0,0,2.2,3.3c4.6,4.2,11.6,2.4,12.4,2.2,4.5-3.3,5.8-9,3.7-13A9.7,9.7,0,0,0,78.7,152.8Z"/>
        <path class="cls-29" d="M77.6,156.6a1.2,1.2,0,0,0,1-.2,1.2,1.2,0,0,0,.5-.9c.1-.7.4-1.6.5-2.3l4.8.6c-.1.4-.1.7-.2,1.3a9.1,9.1,0,0,0-.1,1.7,2.2,2.2,0,0,0,.7.9,9.5,9.5,0,0,1-7.2-1.1Z"/>
        <path class="cls-29" d="M75.9,156.4l4.8.5,5.7,1.1-.6,2.8L78,161.9l-2.8-4.4Z"/>
        <path class="cls-36" d="M84.2,155.2a15.2,15.2,0,0,1-5.5-1c-.4-.1-1.1-.5-1.2-1s.1-.6.1-.9v-.7a1.9,1.9,0,0,1,.3-1c-.2,0-.3-.1-.4-.3s-.3-.2-.3-.3l.9-1.1a1.9,1.9,0,0,0,.2-.8,7.6,7.6,0,0,1,1.8-2.6h0a5,5,0,0,1,3.8-1.5h0a5,5,0,0,1,3.7,2.4l.2.2.3,1h0a4.7,4.7,0,0,1-2.1,4.7l-.8.6Z"/>
        <path class="cls-31" d="M88.2,150.7c-.8,1.8-1.8,2.1-2.2,3.7a5.6,5.6,0,0,0,.4,3.6,5.2,5.2,0,0,1-4.2-.9c-2.2-1.5-3-4.9-1.5-8.2a3.3,3.3,0,0,1-1-3.5,2.6,2.6,0,0,1,1.7-1.4c2-.6,5.4-.3,6.8,2.3A4.9,4.9,0,0,1,88.2,150.7Z"/>
        <path class="cls-31" d="M91.4,222a10.4,10.4,0,0,0-.2,4.3l1,.5.3-.5.4.7a5.1,5.1,0,0,0,2.1,1,4.7,4.7,0,0,0,1.7.3c1,0,2.3-.2,2.4-.6s-.5-.6-1.5-1.4l-1.8-1.8a7.8,7.8,0,0,1-1.2-2.2l-.2-.7Z"/>
        <path class="cls-31" d="M77.9,221.6a3.6,3.6,0,0,1-.8,2.3c-1.6,2-5.1,1.7-5.2,2.5s.1.2.2.3c3.9.3,5.4.2,5.9-.1l.9-.3.7.3h2.7c0-1-.1-1.9-.1-2.9l-.4-1.7Z"/>
        <polygon class="cls-37" points="87.9 179.5 87.9 182.5 81.8 179.9 87.9 179.5"/>
        <path class="cls-38" d="M75.4,178.5c-.1,1.3-.2,3.2-.2,5.5-.2,8,.5,13.3,1.1,21.1.3,4.6.8,10.4,1.3,17.2h4.6c0-1.2-.1-3.1,0-5.2.2-4.6.8-6.4.7-10a39.6,39.6,0,0,0-.7-5.9l2.4-12.3a8.5,8.5,0,0,0,4.9-4.2,7.8,7.8,0,0,0-1-7.8Z"/>
        <polygon class="cls-36" points="87.7 178.7 88.9 178.4 90 178.2 88.9 179.8 87.7 178.7"/>
        <path class="cls-39" d="M78.2,178.5c.9,2.4,1.9,4.9,2.7,7.4,1.9,5,3.7,10,5.2,15l4.1,22,4.5-.8-2-22.7c-.2-2.4-1.4-17.2-1.8-19.3l-.2-.7a8.6,8.6,0,0,0-1.4-2.9l-.8.4Z"/>
        <line class="cls-40" x1="88.1" y1="182.3" x2="103.1" y2="181.4"/>
        <path class="cls-29" d="M93.6,184.4l-.8-2,3.7,1.3v.6l-.2.4a1.2,1.2,0,0,1-1.6.3h-.8A.5.5,0,0,1,93.6,184.4Z"/>
        <path class="cls-29" d="M93.6,179.7a9.2,9.2,0,0,0-.8,2.7l3.7,1.3V183a1.9,1.9,0,0,1-.1-.8,5,5,0,0,0-.2-2.1,6.1,6.1,0,0,0-.5-1.2l-2-.2Z"/>
        <path class="cls-41" d="M55,140a4.3,4.3,0,0,0,.4,1.9,3.8,3.8,0,0,0,1,1.2l1.2.8c.8.2,2,.1,2.2-.3s-.1-.5-.4-1.1l-.5-1-.2-.8c-.3-.6-.5-.6-.6-.9s.3-1.4.1-1.7-1.3-.2-1.8.1A2.8,2.8,0,0,0,55,140Z"/>
        <line class="cls-42" x1="47.6" y1="147.6" x2="67.2" y2="132.8"/>
        <path class="cls-25" d="M65.7,155.2l5.4.7,6.7.7c0,.3.2,2.6,1.9,3.4a4.5,4.5,0,0,0,2.8-.3,18.4,18.4,0,0,0,3.8-1.7,23,23,0,0,1,4,2.3c3.6,2.4,6.6,4.3,7.7,7.7.3,1,.2,2.6.1,5.6a31.3,31.3,0,0,1-.8,6.2,4.1,4.1,0,0,1-2.7.4,3.5,3.5,0,0,1-1.4-.6l.3-5c.1-1.6.3-3.3.4-5a20.3,20.3,0,0,0-5.8-4.7,18.9,18.9,0,0,1-1.6,7.1l1.6,2.6a11.8,11.8,0,0,1,1.1,1.9,17.3,17.3,0,0,1-8.9,2.8,20.3,20.3,0,0,1-5.5-.8l.5-8.5a9.9,9.9,0,0,1-1.1-1.7,5.7,5.7,0,0,1-.8-2.5,15.5,15.5,0,0,1,.4-2.1,10.7,10.7,0,0,0,.7-1.9l-4.5-.6c-5.5-.9-6.5-1.7-7-2.1s-1.4-2-2.6-4.6-1.5-3.9-2.2-5.9-1.1-3.4-1.5-5l2.8-1c1,1.9,2.2,3.8,3.2,5.9A44.3,44.3,0,0,1,65.7,155.2Z"/>
        <path class="cls-25" d="M247.7,141.3l1.5-.5h1.7v7.1a1.2,1.2,0,0,1-.3,1c-.2.2-.4.4-.6.4h-2.7l.3-.6c.5-.8,1.3-.6,1.5-1.3a1.4,1.4,0,0,0,0-.9l-.3-.8a1.3,1.3,0,0,0-.7-.6Z"/>
        <circle class="cls-31" cx="225.8" cy="105.8" r="4.2"/>
        <path class="cls-30" d="M232.5,127.5a27.5,27.5,0,0,1-1.4,12.4l-1.8-.2c0-.5,0-1.6-.1-2.7s-.4-3.2-.5-5a15.3,15.3,0,0,1,.2-3.7l-1.6-3.1c-1.4-3.3-2.8-6.4-3.8-9.4a.8.8,0,0,1,.3-.9h0l3.7-1.2Z"/>
        <path class="cls-30" d="M249.3,146.7l-13.8,2.6a3.7,3.7,0,0,1-3.3-1.2,3.5,3.5,0,0,1-1-2.4,6.9,6.9,0,0,1,.3-3.5c0-.2,0-.3.1-.4,1.3-4.5,2-6.1,2.6-8.5s.6-3.6,1.4-5.6a17.9,17.9,0,0,1,5.6-7.2,10.6,10.6,0,0,1,1.7,2.6,11.1,11.1,0,0,1,1.4,3.4,9.7,9.7,0,0,1-.1,3.4,21.8,21.8,0,0,1-2.6,7.4,50.4,50.4,0,0,1-3.1,4.9l5.5-1.7,4.3-1Z"/>
        <path class="cls-18" d="M241.2,120.5c.6.9,1.2,1.7,1.7,2.6a7.8,7.8,0,0,1,1.4,5.7,5.2,5.2,0,0,1-2.4,3.7l-1.8.8a10.8,10.8,0,0,1-2.7,1,35.5,35.5,0,0,1-8,.3,20,20,0,0,1,3.1,2.7,27.9,27.9,0,0,1,3.8,3.9l-6,4.2a57.8,57.8,0,0,1-4.8-5,70.1,70.1,0,0,1-4.9-6.2,3.9,3.9,0,0,1-.1-2.4,4,4,0,0,1,2.5-2.6l6.8-2.2,5-1.6,3.8-2.6Z"/>
        <path class="cls-43" d="M225.8,122.8l8.8,2.7a28.7,28.7,0,0,0,6.6-5,82.9,82.9,0,0,0-7.1-6.2,40.5,40.5,0,0,0-3.4-2.3,22.2,22.2,0,0,0-4.1-2l-1-.3h0l-2,4.8a3.2,3.2,0,0,0-.2,1.4l.7,5.1a2.1,2.1,0,0,0,1.7,1.8Z"/>
        <path class="cls-44" d="M224.1,115.3a1.6,1.6,0,0,1-.2-1.2,8.6,8.6,0,0,0-1.5-2.2l-1-.6,1.8-2.5,2.4,1c-.4,1-.7,2.1-1,3.1l-.2,1.3Z"/>
        <path class="cls-25" d="M224.6,149.3a3.9,3.9,0,0,1,1.7-1.4c1.3-.5,2,0,3.4-.7s1.5-.7,1.5-1.3a.9.9,0,0,0-.4-.8l2.9-2.1a5.7,5.7,0,0,1,1.3,2.7,11.3,11.3,0,0,1,.6,3.6Z"/>
        <path class="cls-44" d="M223.2,108.9l-2.1,3.1a2,2,0,0,1-1.2.8h0a1.9,1.9,0,0,1-1.3-.2l-1.7-.8-.3.5h-.4l-.5-1.3-.5-.7a6.3,6.3,0,0,1-1.6-2.6h0a5.1,5.1,0,0,1,.4-3.8h0a4.7,4.7,0,0,1,3.7-2.2h1.2a5,5,0,0,1,3.1,3.8v1Z"/>
        <path class="cls-43" d="M225.6,109.8l-1.3,7.2-2.4,8a21.3,21.3,0,0,0-3.5,1.4c-2.8,1.2-3.8,2.2-6.7,3.5a19.6,19.6,0,0,1-3.4,1.2l1.1,1.9,7.7-2.3s4.6-1,7.2-3.6,4.1-6.6,4.9-9.3a20.7,20.7,0,0,0,.6-2.4,4.8,4.8,0,0,0-4-5.6h-.2Z"/>
        <path class="cls-44" d="M209.1,132.7a2.9,2.9,0,0,1-2,1.6,4.7,4.7,0,0,1-1.7-.3,11.8,11.8,0,0,1-1.9-1.1l-1.9,1.5H201a.8.8,0,0,1-.1-.7h0l1.7-1.7.5-.2,2.2-.2,3.2-.2Z"/>
        <path class="cls-44" d="M202,133.6l-.9,1a.4.4,0,0,0,0,.5h0a.5.5,0,0,0,.7.1l2.5-1.7h1.8l-.8-1.1h-1.9Z"/>
        <path class="cls-44" d="M201.9,136.1h.6l1.2-1.4,2.3-1.2-.6-.7L203,134l-1.1,1.5C201.7,135.7,201.8,135.9,201.9,136.1Z"/>
        <path class="cls-44" d="M203.6,136.4a.6.6,0,0,0,.5-.2l.7-1.3,1.1-.9-.5-.6-1.6,1.2-.4,1.4C203.3,136.1,203.4,136.3,203.6,136.4Z"/>
        <path class="cls-31" d="M221.6,103c.8,1,.3,1.8,1.2,4.1a13.4,13.4,0,0,0,.7,1.8,10.9,10.9,0,0,1-2.4-.7l-1.2-1c-.8-.8-.9-1.6-1.5-1.7H218c-.4.4.6,1.4.3,2.2s-1.8.8-2.5.8a2.8,2.8,0,0,1-2.3-.5,2,2,0,0,1-.4-2.1c.2-2,2.1-4.8,4.8-4.8A4,4,0,0,1,221.6,103Z"/>
        <polygon class="cls-6" points="335.7 34.7 310.8 32.4 286.7 39.4 311.7 41.7 335.7 34.7"/>
        <polygon class="cls-45" points="286.7 39.4 289.1 64.6 314.1 66.9 311.7 41.7 286.7 39.4"/>
        <polygon class="cls-8" points="335.7 34.7 311.7 41.7 314.1 66.9 338.2 59.9 335.7 34.7"/>
        <ellipse class="cls-6" cx="287.5" cy="136" rx="28.1" ry="3.4"/>
        <path class="cls-46" d="M312.1,64a7.1,7.1,0,0,1,1-1.4,4.2,4.2,0,0,1,2.2-1.1l1-.6,1.3-.3a.6.6,0,0,0,.3-.6.5.5,0,0,0-.5-.3l-5.4.6a1.5,1.5,0,0,1-1.6-.9V59a.6.6,0,0,0-.6-.5h0c-.2,0-.3.2-.4.5V60a8.5,8.5,0,0,0,.9,4.4Z"/>
        <path class="cls-43" d="M281,89c-.7,1.3-1.3,2.7-2.1,4.2a63.7,63.7,0,0,0-4.6,17.1,56.6,56.6,0,0,0-2,5.8,92,92,0,0,0-3.7,15.7l3.2.8c1-2.9,2.8-7.4,4.9-13s4.2-10.6,4.2-10.8c3.9-9,5.9-11.5,4.9-14.8C285.5,92.9,284.4,90.9,281,89Z"/>
        <path class="cls-47" d="M290.9,91.2l5.8,18.4,5.2,22.4-3.1.7c-1.8-4.5-3.6-9.3-5.3-14.2-.9-2.6-1.8-5.1-2.5-7.6a24.9,24.9,0,0,0-4.2-6c-2.9-3.1-5.4-3.9-7.1-7.3s-.9-4.1-.8-4.4l.9-1.7a25.6,25.6,0,0,1,1.1-2.4A34.3,34.3,0,0,0,290.9,91.2Z"/>
        <path class="cls-22" d="M301.3,127.6a10.5,10.5,0,0,0,.8,3.6,9.1,9.1,0,0,0,3.6,4.6,7.9,7.9,0,0,0,3.3,1.3v.5h-6.3a.8.8,0,0,0-1-.6.7.7,0,0,0-.4.6h-1.6c-.2-.7-.3-1.4-.5-2a72.4,72.4,0,0,0-2.5-7.9Z"/>
        <path class="cls-22" d="M273.5,127.8a21.7,21.7,0,0,0-1.1,4.2,3.8,3.8,0,0,0,.4,3.1,5.8,5.8,0,0,0,1.9,1.5l1.8.8v.4h-5.2c0-.2-.1-.3-.3-.4h-.6l-.3.4a8.9,8.9,0,0,1-2.3-.1l.3-2a7.6,7.6,0,0,0,.3-2.1c.4-2.4.9-5.2,1-5.9Z"/>
        <path class="cls-46" d="M286.2,50.2l1.3-1.5.4-3.8V42.8h-1.3l-1.4,1.8a6,6,0,0,0-.9,1.3h0a6.5,6.5,0,0,0-.4,2v1.6Z"/>
        <path class="cls-46" d="M288.5,45.7l-2.4,2.5-.9-1.5,2.8-1.8h.6C288.7,45.2,288.7,45.6,288.5,45.7Z"/>
        <path class="cls-22" d="M296.4,76.9c-3-1.1-6-2.3-9-3.7l-.5-.3v-.2a14.7,14.7,0,0,1,0-22.9l-3.2-1.4a19.1,19.1,0,0,0-6.1,12,21,21,0,0,0,3,12.5,30,30,0,0,0,3.2,4.7,20.6,20.6,0,0,1-3.1,11.9L291.6,93a5.2,5.2,0,0,1-.4-4.2c.7-1.8,2.8-2.1,3.5-4.2a4.2,4.2,0,0,0,.2-2.2,17.3,17.3,0,0,0,12.4-3.7c7.4-5.8,6.3-15.6,6.3-16.1l-4,.9a21.5,21.5,0,0,1-.7,6.2C307,75,301.1,78.3,296.4,76.9Z"/>
        <path class="cls-46" d="M294.8,67.4h-.5l-1.2.4c-.6.5-.2,1.5-.9,2.7l-.3,1.1v.5a12.7,12.7,0,0,1-1.3,3.2l.6-.2,1.9-.7c1.3-.9,1.6-1.1,1.6-1.7v-2c.5-.4,1-.4.6-1l-.5-.5C294.7,69.2,294.4,68.5,294.8,67.4Z"/>
        <path class="cls-31" d="M293.2,67.9a21.6,21.6,0,0,1-1.1,7.6v.2a5.3,5.3,0,0,1-6.8,3.2l-.9-.4-.3-.2h0a3.6,3.6,0,0,1-.8-4.9l.2-.3a15.4,15.4,0,0,0,2.1-2.9c1.2-2.6,1-4.4,2.8-5.4a7.4,7.4,0,0,1,3.6-.6,4.1,4.1,0,0,1,1.9.5,3.8,3.8,0,0,1,1,1.2,4.9,4.9,0,0,1,.5,1.6,4.6,4.6,0,0,0-2.1.5Z"/>
        <path id="_Clipping_Path_11" data-name=" Clipping Path 11" class="cls-48" d="M114.4,196.3l3.1,20.1c.2,1.3,4.4,2.2,9.4,2.2s9.1-.9,9.3-2.2l3.2-20.1Z"/>
        <path class="cls-30" d="M139.5,196.4c-.3.7-6,1.2-12.5,1.2s-12.2-.5-12.5-1.2,5.2-1.5,12.5-1.5S139.8,195.6,139.5,196.4Z"/>
        <path class="cls-18" d="M118.4,185.7l-1.8.3,1.8,11.3h1.1v-4.9Z"/>
        <path class="cls-49" d="M120.8,185.2h-1.6l.2,7.2v4.9h1.7v-3.2Z"/>
        <path class="cls-49" d="M130.2,197.6H132l1.7-11.7-1.6-.4Z"/>
        <path class="cls-50" d="M122.8,182.9h-1.7v14.6h1.7Z"/>
        <path class="cls-18" d="M129.4,187.1h-1.8v10.5h1.8Z"/>
        <polygon class="cls-20" points="269.2 5 242.5 0 215.9 5 242.5 10.1 269.2 5"/>
      </g>
    </g>
  </g>
</svg>
