<svg xmlns="http://www.w3.org/2000/svg" xmlns:xlink="http://www.w3.org/1999/xlink" viewBox="0 0 429.94 405.81"><defs><style>.cls-1{fill:url(#linear-gradient);}.cls-2{fill:#8c715d;}.cls-3{isolation:isolate;}.cls-4{clip-path:url(#clip-path);}.cls-5{fill:#ffab00;}.cls-11,.cls-19,.cls-20,.cls-21,.cls-22,.cls-23,.cls-27,.cls-29,.cls-36,.cls-6,.cls-8{fill:none;}.cls-11,.cls-6{stroke:#b2d4ff;}.cls-11,.cls-27,.cls-28,.cls-29,.cls-30,.cls-31,.cls-32,.cls-33,.cls-36,.cls-6{stroke-miterlimit:10;}.cls-6{stroke-width:2.59px;}.cls-11,.cls-13,.cls-14,.cls-18,.cls-26,.cls-36,.cls-49,.cls-6,.cls-9{mix-blend-mode:multiply;}.cls-24,.cls-7{opacity:0.5;}.cls-7{mix-blend-mode:soft-light;}.cls-19,.cls-20,.cls-21,.cls-22,.cls-23,.cls-8{stroke:#fff;stroke-linejoin:round;stroke-width:2.26px;}.cls-8{stroke-dasharray:12.37 10.82;}.cls-9{fill:url(#linear-gradient-3);}.cls-10{fill:#0052cc;}.cls-11{stroke-width:2.58px;}.cls-12,.cls-30,.cls-31{fill:#2684ff;}.cls-13{fill:url(#linear-gradient-4);}.cls-14{fill:url(#linear-gradient-5);}.cls-15{fill:url(#linear-gradient-6);}.cls-16{fill:#0065ff;}.cls-17{fill:#57d9a3;}.cls-18,.cls-47{fill:#091e42;}.cls-18,.cls-38,.cls-39{opacity:0.1;}.cls-20{stroke-dasharray:12.52 12.52;}.cls-21{stroke-dasharray:11.59 11.59;}.cls-22{stroke-dasharray:11.35 11.35;}.cls-23{stroke-dasharray:11.68 11.68;}.cls-24,.cls-37{fill:#4c9aff;}.cls-25{fill:#36b37e;}.cls-26{fill:#b2d4ff;}.cls-27,.cls-28,.cls-29,.cls-30,.cls-31,.cls-32,.cls-33{stroke-linecap:round;stroke-width:5.26px;}.cls-27{stroke:url(#linear-gradient-7);}.cls-28,.cls-33{fill:#0049b0;}.cls-28{stroke:url(#linear-gradient-8);}.cls-29{stroke:url(#linear-gradient-9);}.cls-30{stroke:#0049b0;}.cls-31,.cls-33{stroke:#0065ff;}.cls-32{fill:#deebff;stroke:#2684ff;}.cls-34{fill:#fff;}.cls-35{fill:#ffc400;}.cls-36{stroke:#4c9aff;stroke-width:2.99px;}.cls-38{fill:url(#linear-gradient-10);}.cls-39{fill:url(#linear-gradient-11);}.cls-40{fill:#cf9e76;}.cls-41{fill:#b08874;}.cls-42{fill:#172b4d;}.cls-43{fill:url(#linear-gradient-12);}.cls-44{fill:url(#linear-gradient-13);}.cls-45{fill:#a27f68;}.cls-46{fill:url(#linear-gradient-14);}.cls-48{fill:url(#linear-gradient-15);}.cls-49{fill:#fff0b2;}.cls-50{clip-path:url(#clip-path-2);}.cls-51{fill:url(#linear-gradient-16);}.cls-52{opacity:0.6;fill:url(#linear-gradient-17);}.cls-53{fill:url(#linear-gradient-18);}.cls-54{fill:url(#radial-gradient);}</style><linearGradient id="linear-gradient" x1="31.6" y1="342.31" x2="338.02" y2="35.89" gradientUnits="userSpaceOnUse"><stop offset="0" stop-color="#4c9aff"/><stop offset="1" stop-color="#deebff" stop-opacity="0.7"/></linearGradient><clipPath id="clip-path"><path id="_Compound_Clipping_Path_" data-name="&lt;Compound Clipping Path&gt;" class="cls-1" d="M168.34,78.28,41.48,66.75a4.07,4.07,0,0,1-3.35-4.18V35.52c0-2.14,1.5-3.69,3.35-3.47L168.34,47.27c1.47.18,2.66,1.86,2.66,3.76v24C171,77,169.81,78.42,168.34,78.28ZM282,88.61,182,79.52c-1.44-.13-2.61-1.77-2.61-3.65V52c0-1.89,1.17-3.27,2.61-3.1l100,12c1.17.14,2.13,1.63,2.13,3.33V85.73C284.13,87.43,283.18,88.72,282,88.61ZM168.34,332,41.48,350.6c-1.85.27-3.35-1.24-3.35-3.38V79.08c0-2.14,1.5-3.75,3.35-3.59l126.86,10.6c1.47.12,2.66,1.76,2.66,3.66V328.13C171,330,169.81,331.75,168.34,332Zm115.79-20.09v-213c0-1.7-1-3.16-2.13-3.25L182,87.24c-1.44-.12-2.61,1.31-2.61,3.2V326.92c0,1.89,1.17,3.24,2.61,3l100-14.69C283.18,315.09,284.13,313.57,284.13,311.88Zm89.5-214.93-80.88-7.35c-1.15-.1-2.09-1.56-2.09-3.24V65c0-1.69.94-2.94,2.09-2.8l80.88,9.7c1,.12,1.74,1.45,1.74,3V94.32C375.37,95.86,374.59,97,373.63,96.94Zm1.74,201.82V106.18c0-1.54-.78-2.85-1.74-2.93l-80.88-6.76c-1.15-.1-2.09,1.19-2.09,2.88V310.94c0,1.69.94,2.92,2.09,2.75l80.88-11.88C374.59,301.66,375.37,300.3,375.37,298.77Z"/></clipPath><linearGradient id="linear-gradient-3" x1="297.3" y1="174.46" x2="355.43" y2="116.33" gradientUnits="userSpaceOnUse"><stop offset="0" stop-color="#ebecf0" stop-opacity="0"/><stop offset="0.04" stop-color="#ebecf0" stop-opacity="0.18"/><stop offset="0.08" stop-color="#ebecf0" stop-opacity="0.35"/><stop offset="0.13" stop-color="#ebecf0" stop-opacity="0.5"/><stop offset="0.19" stop-color="#ebecf0" stop-opacity="0.64"/><stop offset="0.24" stop-color="#ebecf0" stop-opacity="0.75"/><stop offset="0.31" stop-color="#ebecf0" stop-opacity="0.84"/><stop offset="0.39" stop-color="#ebecf0" stop-opacity="0.91"/><stop offset="0.49" stop-color="#ebecf0" stop-opacity="0.96"/><stop offset="0.62" stop-color="#ebecf0" stop-opacity="0.99"/><stop offset="1" stop-color="#ebecf0"/></linearGradient><linearGradient id="linear-gradient-4" x1="291.63" y1="221.3" x2="352.36" y2="160.57" gradientTransform="matrix(1, -0.01, 0, 1, 5.69, 16.38)" xlink:href="#linear-gradient-3"/><linearGradient id="linear-gradient-5" x1="43.47" y1="135.38" x2="157.23" y2="135.38" xlink:href="#linear-gradient-3"/><linearGradient id="linear-gradient-6" x1="90.8" y1="272.92" x2="309.04" y2="54.68" gradientUnits="userSpaceOnUse"><stop offset="0" stop-color="#b2d4ff"/><stop offset="0.05" stop-color="#bbd9ff"/><stop offset="0.19" stop-color="#cfe3ff"/><stop offset="0.33" stop-color="#dae9ff"/><stop offset="0.48" stop-color="#deebff"/></linearGradient><linearGradient id="linear-gradient-7" y1="315.22" x2="146.95" y2="315.22" gradientUnits="userSpaceOnUse"><stop offset="0.1" stop-color="#0065ff" stop-opacity="0"/><stop offset="0.15" stop-color="#0065ff" stop-opacity="0.21"/><stop offset="0.21" stop-color="#0065ff" stop-opacity="0.39"/><stop offset="0.26" stop-color="#0065ff" stop-opacity="0.56"/><stop offset="0.32" stop-color="#0065ff" stop-opacity="0.69"/><stop offset="0.38" stop-color="#0065ff" stop-opacity="0.81"/><stop offset="0.45" stop-color="#0065ff" stop-opacity="0.89"/><stop offset="0.52" stop-color="#0065ff" stop-opacity="0.95"/><stop offset="0.6" stop-color="#0065ff" stop-opacity="0.99"/><stop offset="0.72" stop-color="#0065ff"/></linearGradient><linearGradient id="linear-gradient-8" x1="332.92" y1="139.79" x2="416.88" y2="139.79" gradientUnits="userSpaceOnUse"><stop offset="0" stop-color="#0049b0"/><stop offset="1" stop-color="#0065ff"/></linearGradient><linearGradient id="linear-gradient-9" x1="141.69" y1="216.06" x2="338.18" y2="216.06" gradientUnits="userSpaceOnUse"><stop offset="0" stop-color="#0065ff"/><stop offset="0.03" stop-color="#1171ff"/><stop offset="0.09" stop-color="#2780ff"/><stop offset="0.16" stop-color="#388cff"/><stop offset="0.24" stop-color="#4394ff"/><stop offset="0.36" stop-color="#4a99ff"/><stop offset="0.68" stop-color="#4c9aff"/><stop offset="1" stop-color="#0049b0"/></linearGradient><linearGradient id="linear-gradient-10" x1="226.45" y1="399.18" x2="294.79" y2="399.18" gradientUnits="userSpaceOnUse"><stop offset="0" stop-color="#091e42"/><stop offset="0.26" stop-color="#091e42" stop-opacity="0.94"/><stop offset="0.5" stop-color="#091e42" stop-opacity="0.77"/><stop offset="0.73" stop-color="#091e42" stop-opacity="0.48"/><stop offset="0.96" stop-color="#091e42" stop-opacity="0.08"/><stop offset="1" stop-color="#091e42" stop-opacity="0"/></linearGradient><linearGradient id="linear-gradient-11" x1="305.3" y1="383.76" x2="370.08" y2="383.76" xlink:href="#linear-gradient-10"/><linearGradient id="linear-gradient-12" x1="2573.33" y1="327.3" x2="2540.43" y2="327.3" gradientTransform="matrix(-1, 0, 0, 1, 2815.91, 0)" gradientUnits="userSpaceOnUse"><stop offset="0" stop-color="#ffe380"/><stop offset="1" stop-color="#ffab00"/></linearGradient><linearGradient id="linear-gradient-13" x1="327.78" y1="284.18" x2="336.65" y2="284.18" gradientUnits="userSpaceOnUse"><stop offset="0" stop-color="#72594b"/><stop offset="0.56" stop-color="#8c715d"/></linearGradient><linearGradient id="linear-gradient-14" x1="402.9" y1="294.78" x2="391.56" y2="306.18" gradientTransform="matrix(-1, 0, 0, 1, 721.23, 0)" gradientUnits="userSpaceOnUse"><stop offset="0" stop-color="#ffc400"/><stop offset="0.01" stop-color="#ffc202"/><stop offset="0.15" stop-color="#ffb00f"/><stop offset="0.32" stop-color="#ffa318"/><stop offset="0.54" stop-color="#ff9b1d"/><stop offset="1" stop-color="#ff991f"/></linearGradient><linearGradient id="linear-gradient-15" x1="388.29" y1="316.67" x2="388.29" y2="285" gradientTransform="matrix(-1, 0, 0, 1, 721.23, 0)" gradientUnits="userSpaceOnUse"><stop offset="0" stop-color="#ff991f"/><stop offset="0.77" stop-color="#ffc400"/></linearGradient><clipPath id="clip-path-2"><path id="_Clipping_Path_" data-name="&lt;Clipping Path&gt;" class="cls-2" d="M331.27,282.75c-3.32.47-3.65.56-4,.22a7,7,0,0,1-.86-2.47c-.2-.75-.35-1.38-.45-1.82-.23.07-.87.24-1.06,0s0-.5.21-1a13.84,13.84,0,0,0,.55-1.87q0-.19,0-.39a7,7,0,0,1,.27-2.12,6.75,6.75,0,0,1,1.88-2.86,6,6,0,0,1,6.68-.83,6.26,6.26,0,0,1,3,4.83,13.34,13.34,0,0,1-.67,4.06v0l-.08.26c-.15.48-.88.95-.88.95-.64.41-.77.25-1.12.51-.63.48-.42,1.16-.89,1.77S332.93,282.52,331.27,282.75Z"/></clipPath><linearGradient id="linear-gradient-16" x1="379" y1="298.01" x2="385.43" y2="301.76" gradientTransform="matrix(-1, 0, 0, 1, 721.23, 0)" gradientUnits="userSpaceOnUse"><stop offset="0" stop-color="#ffc400"/><stop offset="1" stop-color="#ff991f"/></linearGradient><linearGradient id="linear-gradient-17" x1="234.43" y1="140.26" x2="234.43" y2="21.04" gradientUnits="userSpaceOnUse"><stop offset="0" stop-color="#79f2c0" stop-opacity="0"/><stop offset="0.09" stop-color="#79f2c0" stop-opacity="0.05"/><stop offset="0.26" stop-color="#79f2c0" stop-opacity="0.19"/><stop offset="0.49" stop-color="#79f2c0" stop-opacity="0.42"/><stop offset="0.77" stop-color="#79f2c0" stop-opacity="0.72"/><stop offset="1" stop-color="#79f2c0"/></linearGradient><linearGradient id="linear-gradient-18" x1="219.55" y1="35.92" x2="249.31" y2="6.16" gradientUnits="userSpaceOnUse"><stop offset="0" stop-color="#36b37e"/><stop offset="0.26" stop-color="#4bc793"/><stop offset="0.74" stop-color="#6ce6b4"/><stop offset="1" stop-color="#79f2c0"/></linearGradient><radialGradient id="radial-gradient" cx="-319.43" cy="94.88" r="11.47" gradientTransform="matrix(0.99, 0.14, -0.14, 0.99, 564.33, -29.68)" gradientUnits="userSpaceOnUse"><stop offset="0" stop-color="#fafbfc"/><stop offset="0.55" stop-color="#f4f5f8"/><stop offset="1" stop-color="#ebecf0"/></radialGradient></defs><title>Jira</title><g class="cls-3"><g id="Layer_2" data-name="Layer 2"><g id="Layer_1-2" data-name="Layer 1"><path id="_Compound_Clipping_Path_2" data-name="&lt;Compound Clipping Path&gt;" class="cls-1" d="M168.34,78.28,41.48,66.75a4.07,4.07,0,0,1-3.35-4.18V35.52c0-2.14,1.5-3.69,3.35-3.47L168.34,47.27c1.47.18,2.66,1.86,2.66,3.76v24C171,77,169.81,78.42,168.34,78.28ZM282,88.61,182,79.52c-1.44-.13-2.61-1.77-2.61-3.65V52c0-1.89,1.17-3.27,2.61-3.1l100,12c1.17.14,2.13,1.63,2.13,3.33V85.73C284.13,87.43,283.18,88.72,282,88.61ZM168.34,332,41.48,350.6c-1.85.27-3.35-1.24-3.35-3.38V79.08c0-2.14,1.5-3.75,3.35-3.59l126.86,10.6c1.47.12,2.66,1.76,2.66,3.66V328.13C171,330,169.81,331.75,168.34,332Zm115.79-20.09v-213c0-1.7-1-3.16-2.13-3.25L182,87.24c-1.44-.12-2.61,1.31-2.61,3.2V326.92c0,1.89,1.17,3.24,2.61,3l100-14.69C283.18,315.09,284.13,313.57,284.13,311.88Zm89.5-214.93-80.88-7.35c-1.15-.1-2.09-1.56-2.09-3.24V65c0-1.69.94-2.94,2.09-2.8l80.88,9.7c1,.12,1.74,1.45,1.74,3V94.32C375.37,95.86,374.59,97,373.63,96.94Zm1.74,201.82V106.18c0-1.54-.78-2.85-1.74-2.93l-80.88-6.76c-1.15-.1-2.09,1.19-2.09,2.88V310.94c0,1.69.94,2.92,2.09,2.75l80.88-11.88C374.59,301.66,375.37,300.3,375.37,298.77Z"/><g class="cls-4"><path class="cls-5" d="M155.51,211.88c0,4.43-2.82,8.14-6.32,8.29s-6.39-3.37-6.39-7.86,2.87-8.2,6.39-8.29S155.51,207.45,155.51,211.88Z"/><line class="cls-6" x1="59.21" y1="180.17" x2="153.77" y2="179.78"/><line class="cls-6" x1="59.21" y1="195.62" x2="125.64" y2="194.47"/><path class="cls-5" d="M71.56,223.38l-9.92.41A2.54,2.54,0,0,1,59.21,221V209.26a2.75,2.75,0,0,1,2.43-2.92l9.92-.26a2.54,2.54,0,0,1,2.38,2.75v11.63A2.76,2.76,0,0,1,71.56,223.38Z"/><g class="cls-7"><path class="cls-8" d="M160.46,295.8,51.19,308.06a2.36,2.36,0,0,1-2.47-2.6V246.28a2.89,2.89,0,0,1,2.47-3L160.46,237c1.12-.06,2,1,2,2.49V293A2.71,2.71,0,0,1,160.46,295.8Z"/></g><path class="cls-9" d="M361.94,170.63l-69.11-1.1c-.85,0-1.53-1-1.53-2.3v-46.8c0-1.26.69-2.23,1.53-2.17l69.11,4.92c.72.05,1.31,1,1.31,2.19v43.18C363.25,169.71,362.66,170.64,361.94,170.63Z"/><path class="cls-10" d="M363.39,149c0,3.58-1.82,6.44-4.08,6.39s-4.12-3-4.12-6.64,1.85-6.47,4.12-6.39S363.39,145.38,363.39,149Z"/><line class="cls-11" x1="303.51" y1="119.72" x2="363.39" y2="123.32"/><line class="cls-11" x1="303.51" y1="131.96" x2="345.36" y2="133.92"/><path class="cls-12" d="M311.21,154.24,305,154.1c-.83,0-1.51-1-1.51-2.3v-9.34c0-1.25.68-2.24,1.51-2.2l6.19.23c.82,0,1.49,1.06,1.49,2.3V152C312.7,153.27,312,154.26,311.21,154.24Z"/><path class="cls-13" d="M362.12,226.11l-69.46,4.18c-.85.05-1.54-.93-1.54-2.18V181.3c0-1.26.69-2.28,1.54-2.28l69.46-.36c.73,0,1.31.93,1.31,2.09v43.18C363.43,225.09,362.84,226.07,362.12,226.11Z"/><path class="cls-14" d="M155.2,168.65,45.94,166.92A2.75,2.75,0,0,1,43.47,164V104.82a2.48,2.48,0,0,1,2.47-2.7l109.27,7.71a2.58,2.58,0,0,1,2,2.75v53.51A2.32,2.32,0,0,1,155.2,168.65Z"/><path class="cls-15" d="M160.46,158.29,51.19,156.57a2.75,2.75,0,0,1-2.47-2.92V94.47a2.48,2.48,0,0,1,2.47-2.7l109.27,7.71a2.58,2.58,0,0,1,2,2.75v53.51A2.32,2.32,0,0,1,160.46,158.29Zm2,66.06V170.84a2.39,2.39,0,0,0-2-2.62l-109.27-.71a2.68,2.68,0,0,0-2.47,2.86v59.18a2.55,2.55,0,0,0,2.47,2.76L160.46,227A2.51,2.51,0,0,0,162.49,224.35Zm207-64.86V116.31c0-1.16-.59-2.14-1.31-2.19L299,109.2c-.85-.06-1.53.91-1.53,2.17v46.8c0,1.26.69,2.29,1.53,2.3l69.11,1.1C368.86,161.58,369.45,160.65,369.45,159.49Zm0,55.38V171.69c0-1.16-.59-2.1-1.32-2.11l-69.74-.46c-.85,0-1.55,1-1.55,2.27v46.8c0,1.26.69,2.24,1.55,2.2L368.13,217C368.86,217,369.45,216,369.45,214.87Z"/><path class="cls-16" d="M363.33,204.83c0,3.58-1.84,6.56-4.12,6.65s-4.15-2.76-4.15-6.37,1.86-6.59,4.15-6.65S363.33,201.25,363.33,204.83Z"/><line class="cls-6" x1="302.9" y1="179.15" x2="363.33" y2="178.9"/><line class="cls-6" x1="302.9" y1="191.39" x2="345.14" y2="190.66"/><path class="cls-17" d="M310.68,213.49l-6.25.26c-.84,0-1.53-.95-1.53-2.2v-9.34c0-1.25.68-2.28,1.53-2.3l6.25-.17c.83,0,1.5,1,1.5,2.2v9.25C312.18,212.42,311.51,213.45,310.68,213.49Z"/><path class="cls-18" d="M31.71,289.77l12.44-21.42a10.37,10.37,0,0,0,11-4.07l56.25,22.66c0,.3,0,.6,0,.91a10.47,10.47,0,1,0,18.8-6.3l4.8-6.42,105.25-9.56c1-.09,1.89-1.37,1.89-2.84V207.82c0-1.47-.84-2.67-1.89-2.68L187.37,205l35.71-47.76a10.41,10.41,0,0,0,11.65-2.64l70.87,62.56A10.46,10.46,0,1,0,318.24,214L375.09,68.43a15.73,15.73,0,1,0-4.85-2L312.94,213.06a10.39,10.39,0,0,0-3.11.77l-72.6-64.08a10.47,10.47,0,1,0-18.37,4.3l-38,50.89-48.57-.17a2.89,2.89,0,0,0-2.59,3.13v64.57a3.61,3.61,0,0,0,.09.78l-3.76,5a10.44,10.44,0,0,0-12.87,3.7L57,259.38a10.47,10.47,0,1,0-17.49,6.48l-6.74,11.6Z"/></g><g class="cls-7"><polyline class="cls-19" points="191.85 320.07 185.89 320.9 185.89 314.88"/><line class="cls-20" x1="185.89" y1="302.36" x2="185.89" y2="108.32"/><polyline class="cls-19" points="185.89 102.06 185.89 96.05 191.89 96.5"/><line class="cls-21" x1="203.45" y1="97.37" x2="267.02" y2="102.17"/><polyline class="cls-19" points="272.8 102.61 278.8 103.06 278.8 109.08"/><line class="cls-22" x1="278.8" y1="120.42" x2="278.8" y2="296.31"/><polyline class="cls-19" points="278.8 301.99 278.8 308 272.84 308.83"/><line class="cls-23" x1="261.27" y1="310.43" x2="197.64" y2="319.27"/></g><path class="cls-24" d="M155.11,38.13,40.24,23a2.43,2.43,0,0,1-2.11-2.41V7.47a2.43,2.43,0,0,1,2.78-2.41L155.78,21.94a2.43,2.43,0,0,1,2.08,2.41V35.72A2.43,2.43,0,0,1,155.11,38.13Z"/><line class="cls-6" x1="59.21" y1="105.2" x2="153.77" y2="110.84"/><path class="cls-25" d="M155.51,142.69c0,4.43-2.82,8-6.32,7.88s-6.39-3.78-6.39-8.27,2.87-8,6.39-7.88S155.51,138.25,155.51,142.69Z"/><line class="cls-6" x1="59.21" y1="120.65" x2="125.64" y2="123.73"/><polygon class="cls-26" points="334.13 82.97 297.5 79.22 297.5 73.21 334.13 77.2 334.13 82.97"/><polygon class="cls-26" points="106.77 59.68 48.72 53.74 48.72 46.14 106.77 52.46 106.77 59.68"/><polygon class="cls-26" points="232.4 72.55 186.82 67.88 186.82 61.17 232.4 66.13 232.4 72.55"/><polyline class="cls-27" points="2.63 373.15 69.56 257.94 144.32 288.06"/><line class="cls-28" x1="335.55" y1="219.89" x2="414.25" y2="59.68"/><polyline class="cls-29" points="144.32 288.06 251.04 145.3 335.55 219.89"/><circle class="cls-30" cx="335.67" cy="221.73" r="7.83"/><circle class="cls-31" cx="144.32" cy="287.61" r="7.83"/><circle class="cls-31" cx="69.16" cy="257.94" r="7.83"/><circle class="cls-32" cx="249.55" cy="147.25" r="7.83"/><circle class="cls-33" cx="414.25" cy="59.68" r="13.06"/><path class="cls-34" d="M268.77,249.66l-111.09,7.71c-1.44.1-2.61-1.24-2.61-3V189.28a2.89,2.89,0,0,1,2.61-3.14l111.09,1.34c1.1,0,2,1.25,2,2.77v56.52C270.75,248.29,269.86,249.58,268.77,249.66Z"/><path class="cls-35" d="M260.86,233.6c0,4.71-2.79,8.7-6.26,8.9s-6.37-3.51-6.37-8.3,2.86-8.78,6.37-8.91S260.86,228.88,260.86,233.6Z"/><line class="cls-36" x1="166.13" y1="200.6" x2="262.21" y2="200.17"/><line class="cls-36" x1="166.13" y1="217.53" x2="234.3" y2="215.88"/><path class="cls-17" d="M179,247l-10.37.61c-1.41.08-2.55-1.25-2.55-3V231.67a3,3,0,0,1,2.55-3.22l10.37-.38c1.37-.05,2.47,1.28,2.47,3v12.68A3,3,0,0,1,179,247Z"/><path class="cls-37" d="M71.56,148.81l-9.92-.23a2.74,2.74,0,0,1-2.43-2.91V133.89a2.55,2.55,0,0,1,2.43-2.76l9.92.37a2.75,2.75,0,0,1,2.38,2.91V146A2.55,2.55,0,0,1,71.56,148.81Z"/><ellipse class="cls-38" cx="260.62" cy="399.18" rx="34.17" ry="6.63"/><ellipse class="cls-39" cx="337.69" cy="383.76" rx="32.39" ry="6.63"/><path class="cls-40" d="M274.48,299.18a4.3,4.3,0,0,1,1.06,1.48c1.13,2.44.77,5,.94,8.89.2,4.37,0,3,.15,5.26s.38,3.94-.45,5.69a6.45,6.45,0,0,1-.93,1.44l-14.41,14.12-3.72-2.61,12.68-13.7-1.09-20.61,3.35-.93A4.17,4.17,0,0,1,274.48,299.18Z"/><path class="cls-5" d="M275.54,300.66a4.3,4.3,0,0,0-1.06-1.48,4.17,4.17,0,0,0-2.4-1l-3.35.93,1.24,9.73a14.6,14.6,0,0,0,6.47-1.16C276.39,304.8,276.48,302.69,275.54,300.66Z"/><path class="cls-35" d="M259.84,379.65a45.56,45.56,0,0,0,.55,7.15c.23,1.43.56,3.07,1,5.94.15,1.14.26,2.09.33,2.72l-.82,0a9.72,9.72,0,0,0-1.52.1,5.79,5.79,0,0,0-.75.21c-.43.14-.55.21-.59.33s0,.18.13.43c.6.86,1.6.81,3,1.59a6,6,0,0,0,1.31.74,2,2,0,0,0,1.67,0,1.45,1.45,0,0,0,.77-1.62c-.08-.85-.15-1.9-.16-3.1a48.09,48.09,0,0,1,.63-7.22c.18-1.36.49-3.78,1-7.58Z"/><path class="cls-40" d="M270.18,326.62c0-.22,0-.43-.06-.62a38.21,38.21,0,0,0-1.09-5.4,14,14,0,0,0-.47-1.65,13.82,13.82,0,0,0-.8-1.82,13.8,13.8,0,0,1-1.52.4c-.57.12-1,.16-1.25.2-1.34.2-3.9.52-10.8,1.08a21,21,0,0,0-1.3,1.91,23.29,23.29,0,0,0-2.73,6.91c-4.68,20.2-5.62,28.1-5.62,28.1h0l-2,12q-.1,3.47-.31,7.13-.24,4.14-.6,8l6.19.77a35,35,0,0,0,.49-5.73c0-2.76-.33-4.43.17-7.11a17.89,17.89,0,0,1,.84-3,46.32,46.32,0,0,0,2-4.52c1.64-4.28,1.91-6.91,2.67-9.87,1.6-6.28,4.81-11.82,5.59-11.55h0C260.93,335.62,265.88,331.17,270.18,326.62Z"/><path class="cls-40" d="M259.93,341c1,.4-3.41,11.08-.78,21.93a20.24,20.24,0,0,1,.92,4.25,24.28,24.28,0,0,1-.2,5,42.67,42.67,0,0,0,0,7.41l6.4.13a52.29,52.29,0,0,0,.11-11.2c-.12-1.21-.28-2.37-.46-3.47a47,47,0,0,0,1.36-7.59c.2-2.14.53-7.27.54-9.28,0-.26,0-1.18.16-2.4,0-.27.07-.54.15-1,.46-2.7,2.41-13.82,2.09-18.58C266,330.69,261.25,335,259.93,341Z"/><path class="cls-40" d="M272.53,303.39a5.15,5.15,0,0,0-2-6.25,7.06,7.06,0,0,0-1.12-.57A64.17,64.17,0,0,0,253,294c-2.77,0-3.4,0-4.74-.34-2.18-.61-3.17-1.6-6.13-3.36a53.22,53.22,0,0,0-5.14-2.68c-.6-2.75-1.11-5-1.46-6.48-1-4.27-1.38-5.6-1.74-7.91a46.5,46.5,0,0,1-.53-6.29c-.34,0-.84-.08-1.45-.17l-.22,0c-.4-.07-1-.18-1.68-.36a94,94,0,0,0,1.6,24.54c6.1,6,11,8.67,14.59,10,1.61.61,5.38,2,7.07,5.46a8.77,8.77,0,0,1,.71,3.42,21.29,21.29,0,0,1-1.77,10q3.86.4,7.8.75,4.9.44,9.69.79a46.84,46.84,0,0,1,1.74-14.49C271.74,305.63,272.12,304.47,272.53,303.39Z"/><path class="cls-41" d="M260.09,288a6.16,6.16,0,0,1,1.92,5.1,5.56,5.56,0,0,1-1.64,3.16l9.33,1.23a4.32,4.32,0,0,1-1-3,4.26,4.26,0,0,1,1.16-2.71Z"/><path class="cls-42" d="M267.72,277.75c-1.05-1.27-4.46-.67-6.59.58a7.09,7.09,0,0,0-3.21,3.25c-.55,1.3-.58,2.81-1.77,3.57a3,3,0,0,0-.88.59,2.83,2.83,0,0,0-.5,2.46c.1.36.38,1.07,2.92,2.51l.48.26a3.62,3.62,0,0,0,4.76-1.24C268.33,281.6,268.58,278.78,267.72,277.75Z"/><path class="cls-40" d="M264,277.46a19.52,19.52,0,0,0-3.47,4.73c-.1.22-.13.33-.59.54s-1.07.26-1,.61.7.87.75,1.18l-1,4.75,1.78.93,6,3.12c-.06-.27-1.79-7-1.74-7.37s.19-1.15-.21-1.38-.74-4.1-.88-4.63a2,2,0,0,1,.08-1.35C263.9,277.89,264,277.46,264,277.46Z"/><path class="cls-42" d="M264,277.49a8.18,8.18,0,0,0-.26,4.6c.16.94.75,4.5-1,7.41a3.11,3.11,0,0,0,1.3,4.38,9.8,9.8,0,0,0,2.71.95,6.17,6.17,0,0,0,3.12-.2c2.16-.84,3.06-3.22,3.57-4.56a11.45,11.45,0,0,0,.49-6,11.09,11.09,0,0,0-.51-1.83C272.45,279.87,268.34,275.87,264,277.49Z"/><path class="cls-40" d="M232.11,260.08c-.17.13-.21,0-.69.16a3.07,3.07,0,0,0-1.08.64,3.2,3.2,0,0,0-.74,1.85,6.3,6.3,0,0,0-.06,2.31,4.79,4.79,0,0,0,.71,2c.67,1,2,1.92,2.59,1.54.34-.2.32-.67.47-1.67.32-2.11.73-2,.88-3.4s-.29-1.32-.71-4.78c-.16-1.35-.22-2.4-.46-2.42s-.36.52-.43.74C232.09,258.55,232.65,259.69,232.11,260.08Z"/><path id="_Path_" data-name="&lt;Path&gt;" class="cls-43" d="M246.15,300.9c3.14,1.6,5.84,2.91,7.07,5.46a9.65,9.65,0,0,1,.71,3.42c.14,7.2-10.45,41.92-11.35,44.83a34.48,34.48,0,0,0,12.27,5.49,33.77,33.77,0,0,0,15.38-.13,166.09,166.09,0,0,0,.6-21.13c-.08-12.28-1.75-18.36.09-28.66a38.46,38.46,0,0,1,4.55-9.91,12.28,12.28,0,0,0-3.79-3.39,13,13,0,0,0-4.53-1.43c-5-.89-9-1.2-9.59-1.24-2.28-.17-5.19-.37-8.58-.54Z"/><path class="cls-5" d="M270.62,355.41q.11-1.61.17-3.12a38.8,38.8,0,0,1-13.44-.08,55,55,0,0,1-12.77-4.25l-.8,2.69a43.27,43.27,0,0,0,12.91,4.9A34.85,34.85,0,0,0,270.62,355.41Z"/><path class="cls-5" d="M257.35,345.67a54.86,54.86,0,0,1-11.08-3.49l-.87,3a48.16,48.16,0,0,0,11.3,3.83,41.33,41.33,0,0,0,14.18.47q0-1.46,0-2.82A54.34,54.34,0,0,1,257.35,345.67Z"/><path class="cls-35" d="M241.77,380.34c-.31,4.26-.42,7.68-.47,10-.12,5.28.06,7.18-1.35,8.65-2,2.11-5.73,1.65-5.72,2.42,0,.39.94.67,1.37.8,1.74.52,2.53-.06,4.59-.09,2.38,0,3.24.73,4,0a2.91,2.91,0,0,0,.65-2.33c0-.35-.11-.89-.13-1.54a28.73,28.73,0,0,1,1.44-7.57,35.45,35.45,0,0,0,1.81-8.82Z"/><path class="cls-42" d="M238,400.19a21.17,21.17,0,0,0,2.74,0,3.58,3.58,0,0,0,1.89-1,4,4,0,0,1,2-.89l.18,0c0,.6.08,1.09.12,1.43a2.91,2.91,0,0,1-.65,2.33c-.79.7-1.65-.07-4,0-2.06,0-2.86.61-4.59.09-.43-.13-1.37-.41-1.37-.8C234.22,400.81,236.14,400.89,238,400.19Z"/><path class="cls-42" d="M259.33,395.6h0a3.7,3.7,0,0,1,.89-.11l.5,0,.53,0c-.45.09-.81.26-.83.47s.36.42.9.7a1,1,0,0,0,.56.18c.43,0,.45-.55,1-.71a4.65,4.65,0,0,1,.74-.08,4.49,4.49,0,0,0,.48,0,5.71,5.71,0,0,0,.67-.19c0,.53.07,1,.11,1.44a1.45,1.45,0,0,1-.77,1.62,2,2,0,0,1-1.67,0,6,6,0,0,1-1.31-.74c-1.39-.79-2.39-.73-3-1.59a.55.55,0,0,1-.13-.43C258,396.05,258.09,395.92,259.33,395.6Z"/><path class="cls-44" d="M327.78,285.1a6,6,0,0,0,3.17,4.08,5.31,5.31,0,0,0,5.7-1,17.13,17.13,0,0,1,0-9.48l-7.6,2a18.66,18.66,0,0,1,.1,2.44c0,1-.12,1.43-.41,1.69A1.26,1.26,0,0,1,327.78,285.1Z"/><path class="cls-45" d="M296.72,291.87l-4.39,1a.51.51,0,0,0-.47.31.56.56,0,0,0,.07.55.7.7,0,0,0-.36.58.71.71,0,0,0,.52.69.67.67,0,0,0-.1.5.89.89,0,0,0,1.1.42.86.86,0,0,0,.19.54.79.79,0,0,0,.59.28c1.64,0,2.66.07,2.66.07a3.43,3.43,0,0,0,1.85-.59,2.67,2.67,0,0,0,.61-.71c.82.48,1.1.29,1.17.24.38-.3.19-1.38-.46-2.73Z"/><path class="cls-45" d="M314.69,298a2,2,0,0,0-1.45.26,32.13,32.13,0,0,0-4.1-2.1c-2.78-1.18-4.35-1.37-7.34-2.77-1.14-.53-2-1-2.59-1.36l-.34,3.19a92.68,92.68,0,0,0,8.59,7,12.58,12.58,0,0,0,3.07,1.63c1.31.48,4.79,1.74,6,.13S316.57,298.43,314.69,298Z"/><path class="cls-46" d="M313.84,304.78a4.47,4.47,0,0,0,2,.16c1.58-.24,2.59-1.32,3.69-2.52,2-2.21,3.5-3.88,4.73-5.26l-.29-11.28a23.91,23.91,0,0,0-2.34,2.94c-1.91,2.84-2.62,5.23-4.63,5.86a4.17,4.17,0,0,0-.83.3,6.56,6.56,0,0,0-3,3.62A7.71,7.71,0,0,0,313.84,304.78Z"/><path class="cls-47" d="M331.48,386.84a10.49,10.49,0,0,1,.81-.88,11.14,11.14,0,0,1,3.19-2.11,11.52,11.52,0,0,0,4.1-3.6l3.7.58a13,13,0,0,1,.66,2.35,13.08,13.08,0,0,1,.2,2.63l-2.37,0a.94.94,0,0,0-.6-.49c-.44-.06-.84.45-1,.61-1.15,1.34-3.89,1.33-5.5,1.33A12.23,12.23,0,0,1,331.48,386.84Z"/><path class="cls-47" d="M315.26,385.6a10.49,10.49,0,0,1,.81-.88,11.14,11.14,0,0,1,3.19-2.11,11.52,11.52,0,0,0,4.1-3.6l3.7.58a13,13,0,0,1,.66,2.35,13.08,13.08,0,0,1,.2,2.63l-2.37,0a.94.94,0,0,0-.6-.49c-.44-.06-.84.45-1,.61-1.15,1.34-3.89,1.33-5.5,1.33A12.23,12.23,0,0,1,315.26,385.6Z"/><path class="cls-47" d="M323.73,312.58c-.85,6.78-1.53,13.95-2,21.47a318.85,318.85,0,0,0,.66,45.45,7.18,7.18,0,0,0,5.48.22c.13-6,.17-11.1.15-15.48,0-1.71,0-3,0-3.86,0-2.1-.08-4.52-.15-7.21l2.34-22.76c.48,2.87.82,5.23,1,6.84.7,5,.86,7.3,1.64,12,.36,2.24.67,3.81.82,4.63,1.06,5.77,2.51,14.47,4.1,27a13.46,13.46,0,0,0,6.4,0l-2-34.41q-.68-9.77-1.61-19.89-.6-6.43-1.27-12.7Z"/><path id="_Path_2" data-name="&lt;Path&gt;" class="cls-48" d="M326,285a21.63,21.63,0,0,0,2.25,0l2.58,3.29L336,285l6.89,4.45c-.15,1.17-.36,2.86-.64,4.88-.6,4.45-.86,6.68-1.25,8.52s-.88,3.63-1.23,6.34c-.26,2-.35,3.61-.38,4.72l-8.61,2.72-.93-2.91-1.61,2.35-4.46-3.21c0-.52,0-1.32.09-2.3s.16-1.38.18-2.07a10.12,10.12,0,0,0-.28-2.64c-1-4.35,1.17-5.92.2-10.62a34.79,34.79,0,0,1-.83-4.28,10.56,10.56,0,0,1,.08-3.18A2.73,2.73,0,0,1,326,285Z"/><path class="cls-49" d="M330.69,288.11l-1.42,26.43.54-.79.35,1.09,1.45-27-.75.48Z"/><path class="cls-45" d="M299,291.92l-.77-.32a5,5,0,0,0-2.12-.37l-3.13.15h0a1.21,1.21,0,0,0,1.09,1.23l1.22.1,3.32,2.19,1.46-1.36h0A1.74,1.74,0,0,0,299,291.92Z"/><path class="cls-45" d="M340.82,306.23a2,2,0,0,0,.21,1.33,30.58,30.58,0,0,0-1.74,3.75c-1,2.54-1.14,4-2.29,6.7-.44,1-.86,1.86-1.13,2.37l2.65.31a83.65,83.65,0,0,0,5.81-7.84,11.89,11.89,0,0,0,1.35-2.8c.4-1.2,1.44-4.37.11-5.52S341.19,304.51,340.82,306.23Z"/><path class="cls-45" d="M335.8,318.93l-.46.58a4.82,4.82,0,0,0-.88,1.73l-.76,2.75h0a1,1,0,0,0,1.27-.6l.42-1,2.64-2.26-.66-1.64h0A1.4,1.4,0,0,0,335.8,318.93Z"/><path class="cls-5" d="M330.87,288.29l1.22,2.39,4.58-5.19-.62-1.27-1,1.38Z"/><path class="cls-5" d="M329.12,284.32c0,.65-.13.8-.21.89a.93.93,0,0,1-.28.21l2.24,2.9-1.69,1.44-2-4.72L328.2,284l.94-.27C329.14,284,329.13,284.17,329.12,284.32Z"/><path id="_Clipping_Path_2" data-name="&lt;Clipping Path&gt;" class="cls-2" d="M331.27,282.75c-3.32.47-3.65.56-4,.22a7,7,0,0,1-.86-2.47c-.2-.75-.35-1.38-.45-1.82-.23.07-.87.24-1.06,0s0-.5.21-1a13.84,13.84,0,0,0,.55-1.87q0-.19,0-.39a7,7,0,0,1,.27-2.12,6.75,6.75,0,0,1,1.88-2.86,6,6,0,0,1,6.68-.83,6.26,6.26,0,0,1,3,4.83,13.34,13.34,0,0,1-.67,4.06v0l-.08.26c-.15.48-.88.95-.88.95-.64.41-.77.25-1.12.51-.63.48-.42,1.16-.89,1.77S332.93,282.52,331.27,282.75Z"/><g class="cls-50"><path class="cls-42" d="M331.33,274.94a10,10,0,0,1,.39,2.26h1c.3-.37.67-.71,1-.62.68.2.29,2.36,1.17,2.81.67.34,1.66-.52,1.79-.62,1.42-1.22,1.84-3.7,1.21-5.68a6.24,6.24,0,0,0-3-3.51,6.81,6.81,0,0,0-5.31-.53,6.9,6.9,0,0,0-4,3.51c-.13.26-.6,1.24-.29,1.56.16.16.5.13,1.83-.48,2.12-1,2.39-1.4,2.92-1.23C330.65,272.65,331,273.68,331.33,274.94Z"/></g><path class="cls-51" d="M339.19,288.78a3.18,3.18,0,0,1,2.81.17,4.16,4.16,0,0,1,1.69,2.36c1.36,3.79,1.33,5.48,2.34,8.65.56,1.76,1.2,3.31.79,5.37a7.2,7.2,0,0,1-.38,1.28,6.84,6.84,0,0,0-3.46.5,7.19,7.19,0,0,0-2.8,2.14,3,3,0,0,1-1.27-1.63,3.23,3.23,0,0,1,.28-2.14c.51-1.19.46-4.24-1.92-12.3A3.56,3.56,0,0,1,339.19,288.78Z"/><polygon class="cls-45" points="335.67 320.4 335.39 322.37 339.06 321.22 339.45 319.54 335.67 320.4"/><rect class="cls-52" x="213.39" y="21.04" width="42.08" height="119.22"/><circle class="cls-53" cx="234.43" cy="21.04" r="21.04"/><path class="cls-54" d="M248.17,15.76a2,2,0,0,0-.6-1.45l-2-2a2.05,2.05,0,0,0-2.9,0l-10,10L228,17.68a2.05,2.05,0,0,0-2.9,0l-2,2a2.05,2.05,0,0,0,0,2.9l8,8.05h0a2,2,0,0,0,1.17.58l.28,0a2,2,0,0,0,1.45-.6l13.52-13.46A2,2,0,0,0,248.17,15.76Z"/></g></g></g></svg>