<svg xmlns="http://www.w3.org/2000/svg" xmlns:xlink="http://www.w3.org/1999/xlink" viewBox="0 0 545.36 494.5"><defs><style>.cls-1{fill:#b2d4ff;}.cls-2{fill:#0065ff;}.cls-3{isolation:isolate;}.cls-4{opacity:0.25;fill:url(#linear-gradient);}.cls-21,.cls-4,.cls-5{mix-blend-mode:multiply;}.cls-5{fill:url(#linear-gradient-2);}.cls-6{fill:url(#New_Gradient_Swatch_5);}.cls-7{clip-path:url(#clip-path);}.cls-8{fill:#fff;}.cls-9{fill:#deebff;}.cls-10,.cls-15,.cls-25{fill:none;}.cls-11{clip-path:url(#clip-path-2);}.cls-12{fill:url(#linear-gradient-3);}.cls-13{fill:#0049b0;}.cls-14{fill:url(#linear-gradient-4);}.cls-15{stroke:#fff;stroke-width:1.38px;}.cls-15,.cls-25{stroke-miterlimit:10;}.cls-16{fill:#d4b696;}.cls-17{fill:url(#linear-gradient-5);}.cls-18{fill:url(#New_Gradient_Swatch_14);}.cls-19{fill:#253858;}.cls-20{fill:#172b4d;}.cls-21{fill:#091e42;opacity:0.15;}.cls-22{fill:#48cc8c;}.cls-23{fill:#165ecc;}.cls-24{fill:#ffc400;}.cls-25{stroke:#0065ff;stroke-width:2.92px;}.cls-26{fill:#f1dad5;}.cls-27{fill:#f0d0b4;}.cls-28{fill:url(#linear-gradient-6);}.cls-29{fill:#2db07c;}.cls-30{fill:url(#New_Gradient_Swatch_9);}.cls-31{fill:#b5917c;}.cls-32{fill:url(#linear-gradient-7);}.cls-33{fill:#ffe380;}.cls-34{fill:#9c7761;}.cls-35{fill:url(#linear-gradient-8);}.cls-36{fill:#505f79;}</style><linearGradient id="linear-gradient" x1="17.56" y1="486.85" x2="91.6" y2="486.85" gradientUnits="userSpaceOnUse"><stop offset="0" stop-color="#091e42"/><stop offset="0.09" stop-color="#091e42" stop-opacity="0.91"/><stop offset="1" stop-color="#091e42" stop-opacity="0"/></linearGradient><linearGradient id="linear-gradient-2" x1="413.87" y1="422.98" x2="414.87" y2="422.98" gradientUnits="userSpaceOnUse"><stop offset="0.22" stop-color="#fff"/><stop offset="0.33" stop-color="#e8f1ff"/><stop offset="0.57" stop-color="#accdff"/><stop offset="0.91" stop-color="#4d93ff"/><stop offset="1" stop-color="#3384ff"/></linearGradient><linearGradient id="New_Gradient_Swatch_5" x1="137.34" y1="241.52" x2="477.18" y2="241.52" gradientUnits="userSpaceOnUse"><stop offset="0" stop-color="#ff991f"/><stop offset="1" stop-color="#ffc400"/></linearGradient><clipPath id="clip-path"><polygon id="_Clipping_Path_" data-name="&lt;Clipping Path&gt;" class="cls-1" points="148.01 307.41 148.01 106.75 460.03 80.55 460.03 332.37 148.01 307.41"/></clipPath><clipPath id="clip-path-2"><path id="_Clipping_Path_2" data-name="&lt;Clipping Path&gt;" class="cls-2" d="M244.89,315.16l80.49,6.44v-112a40.25,40.25,0,0,0-41.51-40.23h0a40.25,40.25,0,0,0-39,40.23Z"/></clipPath><linearGradient id="linear-gradient-3" x1="313.82" y1="288.97" x2="313.82" y2="139.35" gradientUnits="userSpaceOnUse"><stop offset="0.09" stop-color="#253858" stop-opacity="0.1"/><stop offset="1" stop-color="#253858"/></linearGradient><linearGradient id="linear-gradient-4" x1="203.39" y1="490.79" x2="203.39" y2="315.16" gradientUnits="userSpaceOnUse"><stop offset="0" stop-color="#4c9aff" stop-opacity="0.6"/><stop offset="0.18" stop-color="#3b8eff" stop-opacity="0.69"/><stop offset="0.56" stop-color="#0e6fff" stop-opacity="0.93"/><stop offset="0.67" stop-color="#0065ff"/></linearGradient><linearGradient id="linear-gradient-5" x1="146.81" y1="436.68" x2="146.81" y2="362.03" gradientUnits="userSpaceOnUse"><stop offset="0" stop-color="#4c9aff"/><stop offset="1" stop-color="#0065ff"/></linearGradient><linearGradient id="New_Gradient_Swatch_14" x1="140.66" y1="392.44" x2="194.91" y2="392.44" gradientUnits="userSpaceOnUse"><stop offset="0" stop-color="#0052cc"/><stop offset="1" stop-color="#2684ff"/></linearGradient><linearGradient id="linear-gradient-6" x1="205.82" y1="299" x2="249.48" y2="299" gradientUnits="userSpaceOnUse"><stop offset="0" stop-color="#00875a"/><stop offset="0.38" stop-color="#02895c"/><stop offset="0.56" stop-color="#0a9062"/><stop offset="0.7" stop-color="#179c6d"/><stop offset="0.82" stop-color="#29ae7d"/><stop offset="0.93" stop-color="#41c490"/><stop offset="1" stop-color="#57d9a3"/></linearGradient><linearGradient id="New_Gradient_Swatch_9" x1="208.29" y1="263.65" x2="249.12" y2="263.65" gradientUnits="userSpaceOnUse"><stop offset="0" stop-color="#36b37e"/><stop offset="1" stop-color="#79f2c0"/></linearGradient><linearGradient id="linear-gradient-7" x1="-128.45" y1="-41.54" x2="-96" y2="-41.54" gradientTransform="translate(152.18 472.51) rotate(-7.94)" gradientUnits="userSpaceOnUse"><stop offset="0.35" stop-color="#ffab00"/><stop offset="1" stop-color="#ffc400"/></linearGradient><linearGradient id="linear-gradient-8" x1="-72.65" y1="-76.67" x2="-94.41" y2="-54.9" gradientTransform="translate(152.18 472.51) rotate(-7.94)" gradientUnits="userSpaceOnUse"><stop offset="0" stop-color="#ffc400"/><stop offset="0.56" stop-color="#ff991f"/></linearGradient></defs><title>Create,Share-Team Onboarding</title><g class="cls-3"><g id="Layer_2" data-name="Layer 2"><g id="Layer_1-2" data-name="Layer 1"><ellipse class="cls-4" cx="54.58" cy="486.85" rx="37.02" ry="7.64"/><path class="cls-5" d="M414.85,423l0-.05h-.51l-.06,0Zm-.66,0,.1,0h-.39l0,0Z"/><path class="cls-6" d="M465.15,62.92,144.78,93.39c-4.12.39-7.44,4.95-7.44,10.17v222c0,5.23,3.32,9.81,7.44,10.23l100.69,10.42v63.47l79.74,10.53-.54-65.8,140.48,14.53a10.7,10.7,0,0,0,12-10.87V73.89A10.8,10.8,0,0,0,465.15,62.92Z"/><polygon id="_Clipping_Path_3" data-name="&lt;Clipping Path&gt;" class="cls-1" points="148.01 307.41 148.01 106.75 460.03 80.55 460.03 332.37 148.01 307.41"/><g class="cls-7"><polygon class="cls-8" points="260.11 111.48 192.15 116.46 192.15 296.8 260.11 301.51 260.11 111.48"/><g id="_Group_" data-name="&lt;Group&gt;"><polygon class="cls-8" points="443.58 314.23 271.41 302.3 271.41 185.44 443.58 182.41 443.58 314.23"/><polygon class="cls-9" points="289.97 284.98 289.97 203.68 425.02 201.29 425.02 294.34 289.97 284.98"/></g><polygon class="cls-8" points="443.58 164.31 271.41 169.4 271.41 110.65 443.58 98.03 443.58 164.31"/><path class="cls-9" d="M309.9,137.83c0,7.62-5.49,14-12.2,14.3s-12-5.57-12-13.06,5.34-13.88,12-14.29S309.9,130.21,309.9,137.83Z"/><polygon class="cls-9" points="377.8 120.08 385.67 134.15 377.8 149.03 362.32 149.67 354.71 135.74 362.32 121.03 377.8 120.08"/><polygon class="cls-1" points="330.49 122.77 345.29 150.16 316 151.38 330.49 122.77"/><polygon class="cls-1" points="426.39 147.01 397.78 148.2 397.78 118.63 426.39 116.86 426.39 147.01"/><line class="cls-10" x1="192.15" y1="116.46" x2="192.15" y2="296.51"/></g><path id="_Clipping_Path_4" data-name="&lt;Clipping Path&gt;" class="cls-2" d="M244.89,315.16l80.49,6.44v-112a40.25,40.25,0,0,0-41.51-40.23h0a40.25,40.25,0,0,0-39,40.23Z"/><g class="cls-11"><path class="cls-12" d="M261.27,140.6c-14.44,8.93-11.69,54.64,11.73,74.33,11.95,10,19.23,4.75,31.31,14.57,24.06,19.55,13.48,56.13,24.91,59.26,13.74,3.77,50.08-43.34,45.62-91.56-.79-8.56-3.33-36-20.78-46.63-15.64-9.51-28.18,3.57-62.5-3.77C272.28,142.67,267.49,136.75,261.27,140.6Z"/><polygon class="cls-13" points="244.89 315.27 328.56 297.22 328.56 321.85 244.89 315.27"/></g><polygon class="cls-14" points="244.89 315.16 325.38 321.6 172.59 490.79 81.4 475.15 244.89 315.16"/><path class="cls-15" d="M349.56,416.92"/><path class="cls-16" d="M178.59,306.17c-1.1-.21-2-2.11-1.58-3.63a3.58,3.58,0,0,1,1.8-2.12c.89-.48,1.19-.18,2.25-.52,2.16-.7,3.09-2.67,3.59-2.39.12.07.23.28.15.92a.5.5,0,0,1,.37.19c.17.28-.18.78-.35,1a40.14,40.14,0,0,1-3.2,4.2C180,305.46,179.14,306.27,178.59,306.17Z"/><path class="cls-16" d="M179.81,297.91a3.33,3.33,0,0,0-1.29,1.23c-.52.86-2.13,3.54-1.4,4.18.35.31,1.09,0,1.43-.2.67-.4.48-1.44,1.13-2,.14-.13.21-.2.36-.35.35-.36.53-.54.49-.65s-.66-.06-.84-.34c-.33-.48,1-1.78.77-2S180,297.84,179.81,297.91Z"/><path class="cls-16" d="M184.15,301.94a5.94,5.94,0,0,1-1.68,1.4c-2.2,1.53-3.32,2.84-3.47,2.7s.24-.56.43-.82c1.47-2.09,4.84-6.11,5.48-5.65C185.21,299.79,184.79,301.07,184.15,301.94Z"/><polygon class="cls-16" points="176.92 303.91 177.99 308.35 181.52 307.69 181.07 303.91 176.92 303.91"/><path class="cls-16" d="M130.77,294.5c1.08.32,2.72-1,3.06-2.51a3.58,3.58,0,0,0-.64-2.71c-.57-.83-1-.7-1.77-1.49-1.6-1.61-1.54-3.78-2.11-3.76-.14,0-.33.14-.55.75a.5.5,0,0,0-.41,0c-.28.17-.2.78-.15,1.06a40.14,40.14,0,0,0,.94,5.2C129.86,293.24,130.24,294.34,130.77,294.5Z"/><path class="cls-16" d="M133.44,286.58a3.33,3.33,0,0,1,.59,1.68c.07,1,.29,4.12-.65,4.36-.45.12-1-.49-1.19-.83-.41-.66.23-1.5-.09-2.31-.07-.18-.1-.28-.16-.47-.15-.48-.23-.72-.15-.8s.61.24.9.08c.51-.28-.08-2,.24-2.16C133.09,286.09,133.35,286.46,133.44,286.58Z"/><path class="cls-16" d="M127.74,288.2a5.94,5.94,0,0,0,.86,2c1.26,2.36,1.67,4,1.87,4s0-.61,0-.93c-.36-2.53-1.53-7.65-2.31-7.53C127.77,285.8,127.57,287.14,127.74,288.2Z"/><polygon class="cls-16" points="129.76 292.86 128.55 296.22 132.41 296.81 133.83 291.98 129.76 292.86"/><path class="cls-17" d="M142.06,362a74.09,74.09,0,0,0-1.39,7.69c-.52,4.11-.65,7.86-.29,17.93.14,3.85.35,8.79.69,14.54q-.23,3.59-.36,7.3a258.34,258.34,0,0,0,.46,27.11l5.38.07q.73-12,2-24.63.47-4.59,1-9.09c.23-1.92.62-5,1.15-8.78,2.43-17.3,4.07-21.8,1.38-26.1C151,366.36,148.48,363.5,142.06,362Z"/><path class="cls-18" d="M159,361.27a272.73,272.73,0,0,1,19.58,28.66,272.7,272.7,0,0,1,16.31,32.14l-5.35,1.53c-1.85-2.48-4.17-5.59-6.84-9.18-5-6.68-6.16-8.35-7.57-10.83a54.78,54.78,0,0,1-4.32-9.76l-7.58-4.07c-7.89-4.26-14.7-8-19.44-13.34-1.81-2-3.28-4.24-3.15-6.71,0-.47.19-1.37.51-3.14s.63-3.31.83-4.3a55.66,55.66,0,0,0,17-1Z"/><path class="cls-19" d="M193.94,418.2a37.81,37.81,0,0,0,2.73,5.56h0a6.51,6.51,0,0,0,6.37,3.12l4.82-.58.26.8-6.73,3.72c-.69.06-2.64.25-2.74.91,0,.14,0,.35.4.64q-.92.47-1.92.92a1.5,1.5,0,0,1-1.86-.54c-1.87-2.82-6.91-10.46-7.4-11.61Z"/><path class="cls-19" d="M146.94,433.58c-.15.78-.31,2.76-.41,4.74a7.17,7.17,0,0,0,4,6.84l3.07,1.48-.19.74-7-.45c-.56-.3-2.15-1.1-2.55-.65-.09.1-.14.29,0,.69-1-.1-2-.23-3-.41l-.37-.48c0-.31,0-.69.06-1.13.16-4,0-10.72.25-12.1Z"/><path class="cls-2" d="M161.51,335.6a150.3,150.3,0,0,1-16.16-1.87l-.83-.38-.4-.19c-3.36-1.64-11.21-6.28-13.86-16-3-11,2.91-19.72,3.76-20.95l-5.92-1c-1.6,2.7-6.27,11.35-4.41,22.26,1.67,9.75,7.65,16,10.34,18.81a41.92,41.92,0,0,0,7.28,6.05,35.67,35.67,0,0,1,.41,20.83l19.23.62c-2.41-2.87-2.71-5-2.53-6.44.41-3.22,3.48-4.63,3.71-8.45a8.18,8.18,0,0,0-.64-3.62c2.3-.42,12-2.44,18.4-11.35,9.27-12.81,3.27-27.91,2.88-28.83l-6,3.27a27.32,27.32,0,0,1,1.68,10.14C177.88,327.89,169.78,335.78,161.51,335.6Z"/><path class="cls-16" d="M154.77,321.06a5,5,0,0,1-.7.37,5.28,5.28,0,0,0-1.85,1.27c-.87,1,.24,2.31-.11,4.67a7.2,7.2,0,0,0-.06,1.84,6.91,6.91,0,0,0,.14.87c.15.7.11,2.22-.63,5.69l.93-.55,2.65-2c1.74-2,2.15-2.36,1.88-3.37-.33-1.21-.9-3.33-.85-3.43.51-.86,1.36-1.23.45-1.86-.52-.36-.91-.61-1-.68C155.17,323.73,154.75,323.07,154.77,321.06Z"/><path class="cls-20" d="M152.28,322.63A30.53,30.53,0,0,1,154,335.27q0,.21,0,.42a9,9,0,0,1-11.2,7.91l-.55-.17-.09,0a5.82,5.82,0,0,1-3.22-8.15,22.08,22.08,0,0,0,1.94-5.55c1-4.76-.14-7.62,2.22-10a10.84,10.84,0,0,1,5.54-2.59,5.67,5.67,0,0,1,3.21.06,6,6,0,0,1,2.15,1.46,6.33,6.33,0,0,1,1.41,2.3,9.73,9.73,0,0,0-3.09,1.75Z"/><ellipse class="cls-21" cx="171.5" cy="436.68" rx="36.63" ry="9.24" transform="translate(-111.43 62.44) rotate(-15.65)"/><rect class="cls-22" x="89.55" y="206.46" width="4.09" height="6.72"/><rect class="cls-22" x="149.2" y="59.5" width="4.09" height="6.72"/><rect class="cls-23" x="71.16" y="98.36" width="4.09" height="6.72" transform="translate(-50.48 81.56) rotate(-45)"/><rect class="cls-22" x="402.8" y="50.12" width="4.09" height="6.72" transform="translate(80.76 301.94) rotate(-45)"/><rect class="cls-24" x="227.65" width="4.09" height="6.72"/><rect class="cls-23" x="506.88" y="146.65" width="4.09" height="6.72" transform="translate(42.99 403.81) rotate(-45)"/><rect class="cls-22" x="518.31" y="98.36" width="4.09" height="6.72" transform="translate(80.48 397.74) rotate(-45)"/><rect class="cls-24" x="50.44" y="158.26" width="4.09" height="6.72" transform="translate(129.65 10.22) rotate(45)"/><rect class="cls-23" x="250.17" y="43.27" width="4.09" height="6.72" transform="translate(106.85 -164.69) rotate(45)"/><rect class="cls-23" x="347.52" y="17.75" width="4.09" height="6.72" transform="translate(117.31 -241) rotate(45)"/><rect class="cls-24" x="539.49" y="154.43" width="4.09" height="6.72" transform="translate(270.19 -336.71) rotate(45)"/><path class="cls-25" d="M102.82,140c0,3.55-4.39,3.55-4.39,7.1s4.39,3.55,4.39,7.09-4.39,3.55-4.39,7.1,4.39,3.55,4.39,7.1-4.39,3.55-4.39,7.1"/><path class="cls-25" d="M291.54,3.36c0,3.55-4.39,3.55-4.39,7.1s4.39,3.55,4.39,7.09-4.39,3.55-4.39,7.1,4.39,3.55,4.39,7.1-4.39,3.55-4.39,7.1"/><path class="cls-25" d="M515.24,204.39c0,3.55-4.39,3.55-4.39,7.1s4.39,3.55,4.39,7.09-4.39,3.55-4.39,7.1,4.39,3.55,4.39,7.1-4.39,3.55-4.39,7.1"/><path class="cls-26" d="M212.77,286.5a25.29,25.29,0,0,1-5.68-5,26,26,0,0,1-5.56-12.3c.73-3.65,2.82-11,9.17-14.86,2.85-1.73,7.42-3.26,8.63-1.88s-2.7,6.51-3.56,7.68l-8.07,9.38A42.95,42.95,0,0,1,213.24,281Z"/><ellipse class="cls-21" cx="236.9" cy="363.04" rx="24.88" ry="9.24"/><path class="cls-27" d="M214.14,278.06a12.73,12.73,0,0,1,.57-1.7,13.2,13.2,0,0,1,1-1.87c.4.11,1,.27,1.84.41s1.23.17,1.51.2c1.63.21,4.74.54,13.11,1.1a21.72,21.72,0,0,1,4.89,9c5.68,20.72,6.81,28.83,6.81,28.83s2.28,15.39,4.52,32.84a18.82,18.82,0,0,1-3.64,1.86,11.24,11.24,0,0,1-2.81.59,39.52,39.52,0,0,1-5.75-25.07,72,72,0,0,0-3.75-12.6c-1.19-3-4.9-12.21-6.78-11.85s-.4,9.18-.24,25.69c.08,8.89,0,16.17,0,21a5.14,5.14,0,0,1-4,.4,5.5,5.5,0,0,1-2.55-1.37,79.67,79.67,0,0,1-1.31-7.94c-.16-1.45-.24-2.63-.33-4.3-.16-2.8-.34-6.73-.44-11.65-.82-9.86-1-13.24-1.05-14.19a21.73,21.73,0,0,0-.2-2.54c0-.29-.09-.57-.18-1-.6-3-3.25-15.74-2.55-20.36A34,34,0,0,1,214.14,278.06Z"/><path class="cls-20" d="M248.52,346.21a9.86,9.86,0,0,1-4.1,2.23,11.47,11.47,0,0,1-3.87.36c.83,3,1.63,5.4,2.21,7,1.24,3.5,2.32,5.91,2.63,9.64.07.8.08,1.46.08,1.9l4.18,0,.7-.64,1.11.61h10.64c.67,0,1.14-.53.93-1.05h0l-4.24-1.1c-4.41-1.15-7.62-4.28-8.23-8.05-.41-2.52-.88-5.3-1.28-7.29Q248.91,348,248.52,346.21Z"/><path class="cls-20" d="M218.41,345a10.86,10.86,0,0,0,7.89-.1l-.2,12.5,2.15.09c.75,0,1.16.74.72,1.26l-3,3.11a5.25,5.25,0,0,1-2.09,2.81,3.44,3.44,0,0,1-1.45.56,3.34,3.34,0,0,1-2.05-.41c-1.19-.73-1.14-2.61-1.23-5.92-.06-2.43-.24-4.86-.34-7.29C218.79,350,218.67,347.77,218.41,345Z"/><path class="cls-26" d="M268.21,236.36c-.47-.34-.71-.3-.82-.55s.21-.93,1-1.87a18.22,18.22,0,0,1,3.57-3.35,13.24,13.24,0,0,1,1.66-1c.5-.25,2.2-1.07,2.56-.74.2.19.13.62-.29.84s-.09,0-.76.36c-.31.16-2.11,1.42-1.66,1.85.07.07.18.1.25.17a.62.62,0,0,1,.13.3c.09.25.31.33.43.45.38.36.06,1.31,0,1.42a2.74,2.74,0,0,1-1.7,1.53,3.82,3.82,0,0,1-1.47,1.63c-.45.27-1.1.65-1.66.42S269,237,268.21,236.36Z"/><path class="cls-28" d="M213.34,278.24q-1.78,6.91-3.34,14.44c-1.91,9.33-3.25,18.2-4.18,26.5a38.82,38.82,0,0,0,6.19,2.55c14.16,4.45,26.5-.69,28.68-1.64a41.08,41.08,0,0,0,8.79-5.23c-3.2-13.3-6-23-7-25.32a40.2,40.2,0,0,0-3.09-6.26,40.92,40.92,0,0,0-7.27-8.8Z"/><path class="cls-20" d="M216.6,233.38c1.51-1.78,5.51-2,7.64-.41a6.18,6.18,0,0,1,.59.54c3,2.89,5.46,5.19,5.32,8a6.27,6.27,0,0,1-.25,1.44,3.52,3.52,0,0,1,1.78,1c1.32,1.51.91,4.09-.22,5.63A5.88,5.88,0,0,1,224.2,251a8.42,8.42,0,0,1-1.11-.8c-.38-.41-.95-1.05-1.58-1.87C218.4,244.34,214,236.41,216.6,233.38Z"/><path class="cls-26" d="M221.34,232.8a20.81,20.81,0,0,1,4.3,4.65c.13.23.17.34.71.51s1.21.16,1.15.55-.7,1-.72,1.32l1.29,4a1.29,1.29,0,0,1-.55,1.5l-1,.63-6.38,3.9a56.68,56.68,0,0,0,1.23-8q.06-.75.1-1.48a6,6,0,0,0,1.2-2.88,6.41,6.41,0,0,0-.33-2.88A6.59,6.59,0,0,0,221.34,232.8Z"/><path class="cls-26" d="M225.32,253l-8.19.74a24.7,24.7,0,0,0-.77-8.51l8.19-.74Z"/><path class="cls-26" d="M208.29,256.08l1.39-1.2a15.51,15.51,0,0,1,4-2.22c4-1.46,12.08-1.71,17.45-2.06a83,83,0,0,0,9.1-.93,65.76,65.76,0,0,0,11.25-2.93c1.07-.81,2.53-1.91,4.29-3.2,4.73-3.45,6.62-4.58,9.68-7.11,1.09-.9,2.48-2.11,4-3.63a8.39,8.39,0,0,1,.7,4.49,43.79,43.79,0,0,1-13.67,13.88,60.32,60.32,0,0,1-10.37,5,80.43,80.43,0,0,1-11.64,3.58,9.51,9.51,0,0,1,1.49,3.18c.5,2,0,3-.3,5.89a46.8,46.8,0,0,0,0,9.15s-3,1.84-11.56,1.84a69.32,69.32,0,0,1-10.76-.8,45,45,0,0,0-1.94-15.39A44.4,44.4,0,0,0,208.29,256.08Z"/><path class="cls-29" d="M207.47,270.3c.27,0,.53,0,.8,0l-.57-.86,8.07-9.38c.86-1.17,4.84-6.23,3.56-7.68s-5.78.14-8.63,1.88c-6.35,3.86-8.44,11.2-9.17,14.86.12.69.29,1.54.54,2.51A10.67,10.67,0,0,1,207.47,270.3Z"/><path class="cls-30" d="M249.12,254.93q0-3.7,0-7.4a65.77,65.77,0,0,1-8.92,2.15,83.05,83.05,0,0,1-9.1.93c-5.37.35-13.47.6-17.45,2.06a15.51,15.51,0,0,0-4,2.22l-1.39,1.2a44.4,44.4,0,0,1,3.1,7.51A45,45,0,0,1,213.34,279a69.32,69.32,0,0,0,10.76.8c8.59,0,11.56-1.84,11.56-1.84a46.8,46.8,0,0,1,0-9.15c.32-2.87.8-3.89.3-5.89a9.51,9.51,0,0,0-1.49-3.18,80.43,80.43,0,0,0,11.64-3.58C247,255.81,248,255.41,249.12,254.93Z"/><path class="cls-20" d="M220.35,232.76a8.41,8.41,0,0,1,.74,4.9c-.22,2.55,1,3.64,1.85,7.83.58,2.92.87,4.38.3,5.54-1.71,3.47-9.38,5-11.87,1.66-1.39-1.85-.69-4.57-.4-5.5a12.18,12.18,0,0,1-1.13-6.37,11.16,11.16,0,0,1,.4-2C211.05,236.17,215.29,231.47,220.35,232.76Z"/><polygon class="cls-31" points="6.89 422.06 7.28 427.6 12.79 426.38 12.37 422.06 6.89 422.06"/><path class="cls-31" d="M78.52,394.3A6.62,6.62,0,0,0,78,396.5a3,3,0,0,0,.51,1.68c1.05,1.35,4,1.12,5.68-.1a6.55,6.55,0,0,0,1.68-2c.75-1.15.67-1.52.58-1.7a1.11,1.11,0,0,0-.78-.5c.68-.73.75-1.16.65-1.42-.18-.5-1.11-.87-1.11-.87.05-.15.39-1.13,0-1.43-.13-.1-.3-.09-1,.06-1.34.28-1.3.36-1.54.33-.82-.13-.93-1.07-1.65-1.09a1.41,1.41,0,0,0-1,.53c-.5.49-.52,1-.89,2.25C78.92,393.21,78.92,393,78.52,394.3Z"/><path class="cls-31" d="M13.36,427c-1.09-1.31-1.4-1.52-1.62-1.65a3.1,3.1,0,0,0-1.73-.51c-1.75.14-3.2,2.77-3.12,4.94a6.73,6.73,0,0,0,.76,2.57c.56,1.29.93,1.43,1.14,1.46a1.14,1.14,0,0,0,.86-.39c.24,1,.57,1.29.85,1.36.53.12,1.37-.46,1.37-.46s.75,1,1.22.81c.16-.05.25-.21.53-.91.52-1.31.42-1.32.59-1.51.57-.63,1.45-.2,1.86-.8a1.45,1.45,0,0,0,.09-1.13c-.15-.7-.53-1-1.43-2C14.07,428,14.25,428.12,13.36,427Z"/><path class="cls-32" d="M39.64,419.78c10.43,10.92,11.62,18.87,10.92,23.94-.8,5.84-4.24,8.85-12,21.11C34,472,30.63,478.1,28.45,482.27l-5-2.91a32.82,32.82,0,0,0,2.15-12.47,16.81,16.81,0,0,1,.68-6.37,24.39,24.39,0,0,1,1.9-3.95c2.26-4.2,4.3-7.41,5.5-9.2.9-1.34,1.65-2.45,2.18-3.21-1-1.82-3.1-5.61-5.81-10.6-4.16-7.64-6.23-11.55-5.8-16.45a16.35,16.35,0,0,1,.61-3.22,29.14,29.14,0,0,0,14.77,5.9Z"/><path class="cls-24" d="M39,392.32c1.44,3.21,2.5,5.9,5.16,8.72a23.18,23.18,0,0,0,9.08,5.89,37.65,37.65,0,0,0,11.48-.34A38.29,38.29,0,0,0,81.25,399L78,394.53a97.59,97.59,0,0,1-23.19,2.86c-3.79-5.66-6.43-9.93-8.24-13-1.37-2.3-3-5.25-6.08-5.84-.7-.13-2.51-.48-3.61.45C34.07,381.38,38,390.06,39,392.32Z"/><path class="cls-24" d="M30.52,395.15l-1.6,26.91,17.27-2.41c1.71-4.8,1.41-7.89.76-9.86a12.53,12.53,0,0,1-.6-2.07,12.26,12.26,0,0,1,1-7c1-2.43,1.48-6.9-.68-15.82a8.86,8.86,0,0,0-1.14-2.79c-2.86-4.55-9-4.79-9.89-4.81l-.23,3.83a3.87,3.87,0,0,0-3.77,3.46Z"/><path class="cls-33" d="M37.77,378.34a5.2,5.2,0,0,1,2.61.73c2.3,1.42,3,5.29,3.21,6.88,1,8.93.38,27.63.34,28.67l-19.63,2,1.31-32.21,2.57-3.15a8,8,0,0,1,6.45-3Z"/><path class="cls-34" d="M31.79,373.07c-.3.55.55,1.64.2,3.62a6.12,6.12,0,0,1-.35,1.23A11.88,11.88,0,0,0,37,379.72a11.74,11.74,0,0,0,3.87-.33q.86-4.74.86-4.74l0,.28C34.09,372.32,32.13,372.44,31.79,373.07Z"/><path class="cls-31" d="M41,358.29c.41.88.81,1.85,1.19,2.92a31.81,31.81,0,0,1,1.13,4.08c.13.21.35.56.67,1,1,1.28,1.9,2,1.7,2.37,0,0-1,.52-1.1.68-.32.33.2,3.48-.34,4.83-.78,2-9.15,4.85-12,.36a14.05,14.05,0,0,1-1.9-2.88,3.26,3.26,0,0,0,1.13-.44,4.15,4.15,0,0,0,1.53-1.9c.73-1.64,2.56-5.78,5.18-7.52a7,7,0,0,0,1.68-1.43A6.73,6.73,0,0,0,41,358.29Z"/><path class="cls-19" d="M38.44,361.87c.92,4.37.68,5.61.21,5.81-.23.1-.42-.08-1.93-.68-1.79-.71-2.05-.68-2.19-.56-.43.35.06,1.63.28,2.14l-2.73,3.24a2.76,2.76,0,0,1-.19,1.89,2.24,2.24,0,0,1-.16.25,14,14,0,0,1-1.54-1.24c-2.46-2.28-5.61-6.88-4.1-10.47a5.32,5.32,0,0,1,1.42-1.92,7.2,7.2,0,0,1,.59-.48c2.43-1.77,9.35-2.47,12.15-4,.22-.12.84-.49,1.34-.26s.64,1,.68,1.5a8.93,8.93,0,0,1-3.82,4.84Z"/><path class="cls-35" d="M85.58,428.47c-.74-1.69-2-2.44-3.62-3.84a30.38,30.38,0,0,1-6.4-7.84,13.52,13.52,0,0,0-11.89-5.15l-.71.07-38.73,5.4.12.84a12.69,12.69,0,0,0,1.09,3.66,13.24,13.24,0,0,0,3.84,4.72,19.27,19.27,0,0,0,9.61,3.92c6.85,1,11.61-1,19.41-3.06,1.65-.44,3.59-.93,5.79-1.42q2.37,3.37,4.73,6.52c1.17,1.51,3.39,4.39,5.55,5.64.73.42,3.1,1.62,7.25.6L85,435.91C85.88,433.86,86.71,431,85.58,428.47Z"/><path class="cls-36" d="M103.53,441.26c-2.28,2.71-7.15,8.68-8.88,8.28a1,1,0,0,0-.8.08c-.26.22-.21.64-.23.87,0,.52-.46,1.23-2.21,2.06a1.2,1.2,0,0,1-.81.33,1,1,0,0,1-.76-.32l-3.07-3.29a1.87,1.87,0,0,1,.21-2.63,7.94,7.94,0,0,0,1.42-1.54c1.27-1.8,1-3.13,2-3.65s1.62.35,3.14.69a14.38,14.38,0,0,0,2-.27,15.53,15.53,0,0,0,7.08-3.65l2.12,1.67Z"/><polygon class="cls-36" points="76.19 439.1 87.61 450.19 94.17 443.99 85.78 429.38 76.19 439.1"/><path class="cls-36" d="M40.25,489.22c-3.54,0-11.25,0-12-1.61,0-.06-.22-.5-.57-.56s-.63.24-.82.38c-.42.3-1.24.43-3-.4a1.2,1.2,0,0,1-.77-.42,1,1,0,0,1-.24-.79l.59-4.46a1.87,1.87,0,0,1,2.16-1.51,7.94,7.94,0,0,0,2.09.12c2.2-.17,3.09-1.18,4.07-.79s.76,1.47,1.46,2.86a14.38,14.38,0,0,0,1.46,1.35A15.53,15.53,0,0,0,42,486.55l.05,2.7Z"/><polygon class="cls-36" points="24.56 466.72 23.25 482.59 32.2 483.72 38.16 467.96 24.56 466.72"/><path class="cls-24" d="M24,391.29c-.62,6.25-1.52,8.56-1.76,13a40.22,40.22,0,0,0,1.28,12.26,11.72,11.72,0,0,0,1.78,1c4.75,2.06,9.64.39,11.67-.45q.36-1.91.69-3.86a156.57,156.57,0,0,0,1.92-32,3.87,3.87,0,0,0-3.94-3.92l-6,.11a5.33,5.33,0,0,0-5.2,4.77A87,87,0,0,1,24,391.29Z"/><path class="cls-24" d="M34.63,378.24c-.42-1.32-12.1-2-23.16,5.82C9.06,385.76.7,391.61,0,400.45c0,.14,0,.29,0,.47A20.54,20.54,0,0,0,1.17,408c1.29,4.06,2.11,4.54,2.53,7.59.15,1.09.07,1.2.21,2.24a18.2,18.2,0,0,0,2.45,7l3.43-.31c1.32-.13,2.64-.26,3.43-.31q-.48-7.5-1.34-15.49-.53-4.87-1.17-9.53c5.25-2.71,9.36-4.74,11.86-6,6.46-3.16,10.87-5.15,10.87-8,0-1.38-1.08-2.58-.47-4.48C33.51,379.12,34.77,378.68,34.63,378.24Z"/><polygon class="cls-2" points="171.09 104.81 171.09 309.25 148.01 307.41 148.01 106.75 171.09 104.81"/><path class="cls-8" d="M166.46,122.7c0,4.35-3.14,8-7,8.17s-6.85-3.18-6.85-7.46,3.05-7.93,6.85-8.16S166.46,118.35,166.46,122.7Z"/></g></g></g></svg>